Medium.ufo
<glyph name="quotedbl" format="1">
  <advance width="486"/>
  <unicode hex="0022"/>
  <outline>
    <contour>
      <point x="120" y="700" type="line"/>
      <point x="241" y="700" type="line"/>
      <point x="145" y="392" type="line"/>
      <point x="72" y="392" type="line"/>
    </contour>
    <contour>
      <point x="312" y="700" type="line"/>
      <point x="434" y="700" type="line"/>
      <point x="338" y="392" type="line"/>
      <point x="265" y="392" type="line"/>
    </contour>
  </outline>
</glyph>
<glyph name="F" format="1">
  <advance width="521"/>
  <unicode hex="0046"/>
  <outline>
    <contour>
      <point x="151" y="594" type="line"/>
      <point x="151" y="700" type="line"/>
      <point x="464" y="700" type="line"/>
      <point x="464" y="594" type="line"/>
    </contour>
    <contour>
      <point x="151" y="316" type="line"/>
      <point x="151" y="419" type="line"/>
      <point x="454" y="419" type="line"/>
      <point x="454" y="316" type="line"/>
    </contour>
    <contour>
      <point x="78" y="700" type="line"/>
      <point x="194" y="700" type="line"/>
      <point x="194" y="0" type="line"/>
      <point x="78" y="0" type="line"/>
    </contour>
  </outline>
</glyph>
<glyph name="Y" format="1">
  <advance width="600"/>
  <unicode hex="0059"/>
  <outline>
    <contour>
      <point x="240" y="360" type="line"/>
      <point x="360" y="360" type="line"/>
      <point x="360" y="0" type="line"/>
      <point x="240" y="0" type="line"/>
    </contour>
    <contour>
      <point x="463" y="700" type="line"/>
      <point x="598" y="700" type="line"/>
      <point x="300" y="193" type="line"/>
      <point x="2" y="700" type="line"/>
      <point x="138" y="700" type="line"/>
      <point x="300" y="400" type="line"/>
    </contour>
  </outline>
</glyph>
<glyph name="Z" format="1">
  <advance width="575"/>
  <unicode hex="005A"/>
  <outline>
    <contour>
      <point x="44" y="591" type="line"/>
      <point x="44" y="700" type="line"/>
      <point x="558" y="700" type="line"/>
      <point x="201" y="106" type="line"/>
      <point x="531" y="106" type="line"/>
      <point x="531" y="0" type="line"/>
      <point x="12" y="0" type="line"/>
      <point x="367" y="591" type="line"/>
    </contour>
  </outline>
</glyph>
<glyph name="asciicircum" format="1">
  <advance width="510"/>
  <unicode hex="005E"/>
  <outline>
    <contour>
      <point x="255" y="605" type="line"/>
      <point x="158" y="455" type="line"/>
      <point x="55" y="455" type="line"/>
      <point x="225" y="710" type="line"/>
      <point x="285" y="710" type="line"/>
      <point x="455" y="455" type="line"/>
      <point x="352" y="455" type="line"/>
    </contour>
  </outline>
</glyph>
<glyph name="j" format="1">
  <advance width="258"/>
  <unicode hex="006A"/>
  <outline>
    <contour>
      <point x="58" y="643" type="curve" smooth="yes"/>
      <point x="58" y="680"/>
      <point x="88" y="709"/>
      <point x="126" y="709" type="curve" smooth="yes"/>
      <point x="164" y="709"/>
      <point x="194" y="680"/>
      <point x="194" y="643" type="curve" smooth="yes"/>
      <point x="194" y="606"/>
      <point x="164" y="577"/>
      <point x="126" y="577" type="curve" smooth="yes"/>
      <point x="88" y="577"/>
      <point x="58" y="606"/>
    </contour>
    <contour>
      <point x="-24" y="-99" type="line"/>
      <point x="-10" y="-120"/>
      <point x="7" y="-125"/>
      <point x="24" y="-125" type="curve" smooth="yes"/>
      <point x="54" y="-125"/>
      <point x="72" y="-102"/>
      <point x="72" y="-44" type="curve" smooth="yes"/>
      <point x="72" y="460" type="line"/>
      <point x="179" y="460" type="line"/>
      <point x="179" y="-65" type="line" smooth="yes"/>
      <point x="179" y="-171"/>
      <point x="126" y="-228"/>
      <point x="30" y="-228" type="curve" smooth="yes"/>
      <point x="-23" y="-228"/>
      <point x="-56" y="-203"/>
      <point x="-74" y="-183" type="curve"/>
    </contour>
  </outline>
</glyph>
<glyph name="m" format="1">
  <advance width="796"/>
  <unicode hex="006D"/>
  <outline>
    <contour>
      <point x="342" y="280" type="line" smooth="yes"/>
      <point x="342" y="347"/>
      <point x="322" y="383"/>
      <point x="266" y="383" type="curve" smooth="yes"/>
      <point x="207" y="383"/>
      <point x="175" y="341"/>
      <point x="175" y="280" type="curve"/>
      <point x="149" y="278" type="line"/>
      <point x="149" y="387"/>
      <point x="204" y="470"/>
      <point x="304" y="470" type="curve" smooth="yes"/>
      <point x="404" y="470"/>
      <point x="451" y="411"/>
      <point x="451" y="295" type="curve" smooth="yes"/>
      <point x="451" y="0" type="line"/>
      <point x="342" y="0" type="line"/>
    </contour>
    <contour>
      <point x="175" y="460" type="line"/>
      <point x="175" y="0" type="line"/>
      <point x="69" y="0" type="line"/>
      <point x="69" y="460" type="line"/>
    </contour>
    <contour>
      <point x="728" y="292" type="curve" smooth="yes"/>
      <point x="728" y="0" type="line"/>
      <point x="619" y="0" type="line"/>
      <point x="619" y="280" type="line" smooth="yes"/>
      <point x="619" y="347"/>
      <point x="598" y="383"/>
      <point x="542" y="383" type="curve" smooth="yes"/>
      <point x="483" y="383"/>
      <point x="451" y="341"/>
      <point x="451" y="280" type="curve"/>
      <point x="406" y="278" type="line"/>
      <point x="406" y="387"/>
      <point x="481" y="470"/>
      <point x="581" y="470" type="curve" smooth="yes"/>
      <point x="681" y="470"/>
      <point x="728" y="408"/>
    </contour>
  </outline>
</glyph>
<glyph name="w" format="1">
  <advance width="712"/>
  <unicode hex="0077"/>
  <outline>
    <contour>
      <point x="595" y="460" type="line"/>
      <point x="712" y="460" type="line"/>
      <point x="498" y="-32" type="line"/>
      <point x="465" y="128" type="line"/>
    </contour>
    <contour>
      <point x="322" y="345" type="line"/>
      <point x="352" y="495" type="line"/>
      <point x="515" y="122" type="line"/>
      <point x="498" y="-32" type="line"/>
    </contour>
    <contour>
      <point x="352" y="495" type="line"/>
      <point x="382" y="345" type="line"/>
      <point x="215" y="-32" type="line"/>
      <point x="198" y="122" type="line"/>
    </contour>
    <contour>
      <point x="0" y="460" type="line"/>
      <point x="118" y="460" type="line"/>
      <point x="248" y="128" type="line"/>
      <point x="215" y="-32" type="line"/>
    </contour>
  </outline>
</glyph>
<glyph name="bar" format="1">
  <advance width="305"/>
  <unicode hex="007C"/>
  <outline>
    <contour>
      <point x="100" y="785" type="line"/>
      <point x="206" y="785" type="line"/>
      <point x="206" y="-215" type="line"/>
      <point x="100" y="-215" type="line"/>
    </contour>
  </outline>
</glyph>
<glyph name="sterling" format="1">
  <advance width="592"/>
  <unicode hex="00A3"/>
  <outline>
    <contour>
      <point x="67" y="370" type="line"/>
      <point x="434" y="370" type="line"/>
      <point x="434" y="285" type="line"/>
      <point x="67" y="285" type="line"/>
    </contour>
    <contour>
      <point x="444" y="474" type="line"/>
      <point x="440" y="540"/>
      <point x="407" y="606"/>
      <point x="326" y="606" type="curve" smooth="yes"/>
      <point x="271" y="606"/>
      <point x="219" y="578"/>
      <point x="219" y="510" type="curve" smooth="yes"/>
      <point x="219" y="406"/>
      <point x="313" y="378"/>
      <point x="313" y="266" type="curve" smooth="yes"/>
      <point x="313" y="160"/>
      <point x="221" y="70"/>
      <point x="147" y="50" type="curve"/>
      <point x="169" y="104" type="line"/>
      <point x="526" y="104" type="line"/>
      <point x="526" y="0" type="line"/>
      <point x="59" y="0" type="line"/>
      <point x="157" y="102"/>
      <point x="206" y="171"/>
      <point x="206" y="264" type="curve" smooth="yes"/>
      <point x="206" y="358"/>
      <point x="104" y="391"/>
      <point x="104" y="519" type="curve" smooth="yes"/>
      <point x="104" y="638"/>
      <point x="200" y="710"/>
      <point x="324" y="710" type="curve" smooth="yes"/>
      <point x="464" y="710"/>
      <point x="536" y="594"/>
      <point x="541" y="512" type="curve"/>
    </contour>
  </outline>
</glyph>
<glyph name="yen" format="1">
  <advance width="615"/>
  <unicode hex="00A5"/>
  <outline>
    <contour>
      <point x="248" y="360" type="line"/>
      <point x="369" y="360" type="line"/>
      <point x="369" y="0" type="line"/>
      <point x="248" y="0" type="line"/>
    </contour>
    <contour>
      <point x="472" y="700" type="line"/>
      <point x="606" y="700" type="line"/>
      <point x="308" y="193" type="line"/>
      <point x="11" y="700" type="line"/>
      <point x="145" y="700" type="line"/>
      <point x="308" y="400" type="line"/>
    </contour>
    <contour>
      <point x="45" y="130" type="line"/>
      <point x="45" y="215" type="line"/>
      <point x="566" y="215" type="line"/>
      <point x="566" y="130" type="line"/>
    </contour>
    <contour>
      <point x="45" y="280" type="line"/>
      <point x="45" y="365" type="line"/>
      <point x="566" y="365" type="line"/>
      <point x="566" y="280" type="line"/>
    </contour>
  </outline>
</glyph>
<glyph name="dieresis" format="1">
  <advance width="486"/>
  <unicode hex="00A8"/>
  <outline>
    <contour>
      <point x="281" y="649" type="curve" smooth="yes"/>
      <point x="281" y="687"/>
      <point x="312" y="719"/>
      <point x="352" y="719" type="curve" smooth="yes"/>
      <point x="392" y="719"/>
      <point x="423" y="687"/>
      <point x="423" y="649" type="curve" smooth="yes"/>
      <point x="423" y="611"/>
      <point x="392" y="579"/>
      <point x="352" y="579" type="curve" smooth="yes"/>
      <point x="312" y="579"/>
      <point x="281" y="611"/>
    </contour>
    <contour>
      <point x="64" y="649" type="curve" smooth="yes"/>
      <point x="64" y="687"/>
      <point x="94" y="719"/>
      <point x="134" y="719" type="curve" smooth="yes"/>
      <point x="174" y="719"/>
      <point x="205" y="687"/>
      <point x="205" y="649" type="curve" smooth="yes"/>
      <point x="205" y="611"/>
      <point x="174" y="579"/>
      <point x="134" y="579" type="curve" smooth="yes"/>
      <point x="94" y="579"/>
      <point x="64" y="611"/>
    </contour>
  </outline>
</glyph>
<glyph name="guillemotleft" format="1">
  <advance width="522"/>
  <unicode hex="00AB"/>
  <outline>
    <contour>
      <point x="118" y="235" type="line"/>
      <point x="35" y="255" type="line"/>
      <point x="220" y="498" type="line"/>
      <point x="288" y="445" type="line"/>
    </contour>
    <contour>
      <point x="35" y="255" type="line"/>
      <point x="118" y="285" type="line"/>
      <point x="288" y="65" type="line"/>
      <point x="220" y="12" type="line"/>
    </contour>
    <contour>
      <point x="295" y="235" type="line"/>
      <point x="212" y="255" type="line"/>
      <point x="398" y="498" type="line"/>
      <point x="465" y="445" type="line"/>
    </contour>
    <contour>
      <point x="212" y="255" type="line"/>
      <point x="295" y="285" type="line"/>
      <point x="465" y="65" type="line"/>
      <point x="398" y="12" type="line"/>
    </contour>
  </outline>
</glyph>
<glyph name="registered" format="1">
  <advance width="800"/>
  <unicode hex="00AE"/>
  <outline>
    <contour>
      <point x="360" y="345" type="line"/>
      <point x="432" y="345" type="line"/>
      <point x="569" y="150" type="line"/>
      <point x="484" y="150" type="line"/>
    </contour>
    <contour>
      <point x="266" y="570" type="line"/>
      <point x="337" y="570" type="line"/>
      <point x="337" y="150" type="line"/>
      <point x="266" y="150" type="line"/>
    </contour>
    <contour>
      <point x="308" y="508" type="line"/>
      <point x="308" y="570" type="line"/>
      <point x="396" y="570" type="line" smooth="yes"/>
      <point x="488" y="570"/>
      <point x="547" y="518"/>
      <point x="547" y="442" type="curve" smooth="yes"/>
      <point x="547" y="364"/>
      <point x="488" y="312"/>
      <point x="396" y="312" type="curve" smooth="yes"/>
      <point x="308" y="312" type="line"/>
      <point x="308" y="370" type="line"/>
      <point x="392" y="370" type="line" smooth="yes"/>
      <point x="441" y="370"/>
      <point x="474" y="395"/>
      <point x="474" y="440" type="curve" smooth="yes"/>
      <point x="474" y="485"/>
      <point x="441" y="509"/>
      <point x="392" y="509" type="curve" smooth="yes"/>
    </contour>
    <contour>
      <point x="95" y="350" type="curve" smooth="yes"/>
      <point x="95" y="172"/>
      <point x="227" y="40"/>
      <point x="400" y="40" type="curve" smooth="yes"/>
      <point x="573" y="40"/>
      <point x="705" y="172"/>
      <point x="705" y="350" type="curve" smooth="yes"/>
      <point x="705" y="528"/>
      <point x="573" y="660"/>
      <point x="400" y="660" type="curve" smooth="yes"/>
      <point x="227" y="660"/>
      <point x="95" y="528"/>
    </contour>
    <contour>
      <point x="40" y="350" type="curve" smooth="yes"/>
      <point x="40" y="559"/>
      <point x="196" y="710"/>
      <point x="400" y="710" type="curve" smooth="yes"/>
      <point x="604" y="710"/>
      <point x="760" y="559"/>
      <point x="760" y="350" type="curve" smooth="yes"/>
      <point x="760" y="141"/>
      <point x="604" y="-10"/>
      <point x="400" y="-10" type="curve" smooth="yes"/>
      <point x="196" y="-10"/>
      <point x="40" y="141"/>
    </contour>
  </outline>
</glyph>
<glyph name="uni00B3" format="1">
  <advance width="333"/>
  <unicode hex="00B3"/>
  <outline>
    <contour>
      <point x="146" y="486" type="curve"/>
      <point x="146" y="524" type="line"/>
      <point x="197" y="524"/>
      <point x="228" y="554"/>
      <point x="228" y="590" type="curve" smooth="yes"/>
      <point x="228" y="624"/>
      <point x="209" y="647"/>
      <point x="171" y="647" type="curve" smooth="yes"/>
      <point x="135" y="647"/>
      <point x="107" y="622"/>
      <point x="107" y="588" type="curve"/>
      <point x="40" y="588" type="line"/>
      <point x="40" y="657"/>
      <point x="94" y="707"/>
      <point x="171" y="707" type="curve" smooth="yes"/>
      <point x="252" y="707"/>
      <point x="300" y="654"/>
      <point x="300" y="593" type="curve" smooth="yes"/>
      <point x="300" y="529"/>
      <point x="234" y="486"/>
    </contour>
    <contour>
      <point x="167" y="272" type="curve" smooth="yes"/>
      <point x="78" y="272"/>
      <point x="22" y="331"/>
      <point x="22" y="400" type="curve"/>
      <point x="94" y="400" type="line"/>
      <point x="94" y="359"/>
      <point x="126" y="334"/>
      <point x="169" y="334" type="curve" smooth="yes"/>
      <point x="212" y="334"/>
      <point x="240" y="358"/>
      <point x="240" y="400" type="curve" smooth="yes"/>
      <point x="240" y="445"/>
      <point x="203" y="470"/>
      <point x="146" y="470" type="curve"/>
      <point x="146" y="511" type="line"/>
      <point x="239" y="511"/>
      <point x="312" y="476"/>
      <point x="312" y="392" type="curve" smooth="yes"/>
      <point x="312" y="320"/>
      <point x="253" y="272"/>
    </contour>
  </outline>
</glyph>
<glyph name="cedilla" format="1">
  <advance width="367"/>
  <unicode hex="00B8"/>
  <outline>
    <contour>
      <point x="191" y="64" type="line"/>
      <point x="272" y="63" type="line"/>
      <point x="190" y="-64" type="line"/>
      <point x="105" y="-114" type="line"/>
    </contour>
    <contour>
      <point x="299" y="-135" type="curve"/>
      <point x="226" y="-132" type="line"/>
      <point x="226" y="-107"/>
      <point x="205" y="-97"/>
      <point x="172" y="-97" type="curve" smooth="yes"/>
      <point x="162" y="-97"/>
      <point x="133" y="-98"/>
      <point x="105" y="-114" type="curve"/>
      <point x="155" y="-72" type="line"/>
      <point x="181" y="-52"/>
      <point x="199" y="-52"/>
      <point x="219" y="-52" type="curve" smooth="yes"/>
      <point x="255" y="-52"/>
      <point x="299" y="-79"/>
    </contour>
    <contour>
      <point x="299" y="-135" type="line"/>
      <point x="299" y="-201"/>
      <point x="240" y="-235"/>
      <point x="182" y="-235" type="curve" smooth="yes"/>
      <point x="138" y="-235"/>
      <point x="108" y="-225"/>
      <point x="72" y="-196" type="curve"/>
      <point x="110" y="-145" type="line"/>
      <point x="132" y="-162"/>
      <point x="150" y="-170"/>
      <point x="174" y="-170" type="curve" smooth="yes"/>
      <point x="208" y="-170"/>
      <point x="226" y="-156"/>
      <point x="226" y="-132" type="curve"/>
    </contour>
  </outline>
</glyph>
<glyph name="ordmasculine" format="1">
  <advance width="278"/>
  <unicode hex="00BA"/>
  <outline>
    <contour>
      <point x="20" y="580" type="curve" smooth="yes"/>
      <point x="20" y="651"/>
      <point x="72" y="700"/>
      <point x="143" y="700" type="curve" smooth="yes"/>
      <point x="214" y="700"/>
      <point x="268" y="651"/>
      <point x="268" y="580" type="curve" smooth="yes"/>
      <point x="268" y="509"/>
      <point x="214" y="460"/>
      <point x="143" y="460" type="curve" smooth="yes"/>
      <point x="72" y="460"/>
      <point x="20" y="509"/>
    </contour>
    <contour>
      <point x="74" y="580" type="curve" smooth="yes"/>
      <point x="74" y="537"/>
      <point x="104" y="508"/>
      <point x="143" y="508" type="curve" smooth="yes"/>
      <point x="182" y="508"/>
      <point x="212" y="537"/>
      <point x="212" y="580" type="curve" smooth="yes"/>
      <point x="212" y="623"/>
      <point x="182" y="652"/>
      <point x="143" y="652" type="curve" smooth="yes"/>
      <point x="104" y="652"/>
      <point x="74" y="623"/>
    </contour>
  </outline>
</glyph>
<glyph name="onequarter" format="1">
  <advance width="781"/>
  <unicode hex="00BC"/>
  <outline>
    <contour>
      <point x="623" y="700" type="line"/>
      <point x="700" y="700" type="line"/>
      <point x="180" y="0" type="line"/>
      <point x="103" y="0" type="line"/>
    </contour>
    <contour>
      <point x="28" y="596" type="line"/>
      <point x="28" y="663" type="line"/>
      <point x="195" y="701" type="line"/>
      <point x="195" y="274" type="line"/>
      <point x="125" y="274" type="line"/>
      <point x="125" y="623" type="line"/>
    </contour>
    <contour>
      <point x="402" y="80" type="line"/>
      <point x="460" y="136" type="line"/>
      <point x="644" y="136" type="line" smooth="yes"/>
      <point x="654" y="142" type="line" smooth="yes"/>
      <point x="748" y="142" type="line"/>
      <point x="748" y="80" type="line"/>
    </contour>
    <contour>
      <point x="475" y="92" type="line"/>
      <point x="402" y="80" type="line"/>
      <point x="639" y="420" type="line"/>
      <point x="682" y="420" type="line"/>
      <point x="682" y="0" type="line"/>
      <point x="609" y="0" type="line"/>
      <point x="609" y="102" type="line" smooth="yes"/>
      <point x="614" y="108" type="line" smooth="yes"/>
      <point x="614" y="294" type="line"/>
    </contour>
  </outline>
</glyph>
<glyph name="Aring" format="1">
  <advance width="690"/>
  <unicode hex="00C5"/>
  <outline>
    <contour>
      <point x="162" y="180" type="line"/>
      <point x="184" y="280" type="line"/>
      <point x="510" y="280" type="line"/>
      <point x="532" y="180" type="line"/>
    </contour>
    <contour>
      <point x="345" y="502" type="line"/>
      <point x="235" y="245" type="line"/>
      <point x="233" y="219" type="line"/>
      <point x="136" y="0" type="line"/>
      <point x="2" y="0" type="line"/>
      <point x="345" y="739" type="line"/>
      <point x="688" y="0" type="line"/>
      <point x="554" y="0" type="line"/>
      <point x="459" y="213" type="line"/>
      <point x="456" y="242" type="line"/>
    </contour>
    <contour>
      <point x="234" y="799" type="curve" smooth="yes"/>
      <point x="234" y="863"/>
      <point x="286" y="905"/>
      <point x="345" y="905" type="curve" smooth="yes"/>
      <point x="404" y="905"/>
      <point x="456" y="863"/>
      <point x="456" y="799" type="curve" smooth="yes"/>
      <point x="456" y="735"/>
      <point x="404" y="693"/>
      <point x="345" y="693" type="curve" smooth="yes"/>
      <point x="286" y="693"/>
      <point x="234" y="735"/>
    </contour>
    <contour>
      <point x="296" y="799" type="curve" smooth="yes"/>
      <point x="296" y="767"/>
      <point x="320" y="748"/>
      <point x="345" y="748" type="curve" smooth="yes"/>
      <point x="370" y="748"/>
      <point x="394" y="767"/>
      <point x="394" y="799" type="curve" smooth="yes"/>
      <point x="394" y="831"/>
      <point x="370" y="850"/>
      <point x="345" y="850" type="curve" smooth="yes"/>
      <point x="320" y="850"/>
      <point x="296" y="831"/>
    </contour>
  </outline>
</glyph>
<glyph name="AE" format="1">
  <advance width="1010"/>
  <unicode hex="00C6"/>
  <outline>
    <contour>
      <point x="238" y="186" type="line"/>
      <point x="241" y="296" type="line"/>
      <point x="541" y="296" type="line"/>
      <point x="541" y="186" type="line"/>
    </contour>
    <contour>
      <point x="436" y="700" type="line"/>
      <point x="543" y="660" type="line"/>
      <point x="151" y="0" type="line"/>
      <point x="9" y="0" type="line"/>
    </contour>
    <contour>
      <point x="574" y="0" type="line"/>
      <point x="574" y="104" type="line"/>
      <point x="940" y="104" type="line"/>
      <point x="940" y="0" type="line"/>
    </contour>
    <contour>
      <point x="582" y="596" type="line"/>
      <point x="436" y="700" type="line"/>
      <point x="940" y="700" type="line"/>
      <point x="940" y="596" type="line"/>
    </contour>
    <contour>
      <point x="574" y="324" type="line"/>
      <point x="574" y="426" type="line"/>
      <point x="920" y="426" type="line"/>
      <point x="920" y="324" type="line"/>
    </contour>
    <contour>
      <point x="514" y="700" type="line"/>
      <point x="638" y="700" type="line"/>
      <point x="638" y="0" type="line"/>
      <point x="514" y="0" type="line"/>
    </contour>
  </outline>
</glyph>
<glyph name="Ccedilla" format="1">
  <advance width="691"/>
  <unicode hex="00C7"/>
  <outline>
    <contour>
      <point x="166" y="350" type="curve" smooth="yes"/>
      <point x="166" y="201"/>
      <point x="277" y="103"/>
      <point x="405" y="103" type="curve" smooth="yes"/>
      <point x="504" y="103"/>
      <point x="576" y="145"/>
      <point x="624" y="202" type="curve"/>
      <point x="624" y="62" type="line"/>
      <point x="566" y="14"/>
      <point x="503" y="-12"/>
      <point x="401" y="-12" type="curve" smooth="yes"/>
      <point x="195" y="-12"/>
      <point x="38" y="137"/>
      <point x="38" y="350" type="curve" smooth="yes"/>
      <point x="38" y="563"/>
      <point x="195" y="712"/>
      <point x="401" y="712" type="curve" smooth="yes"/>
      <point x="503" y="712"/>
      <point x="566" y="686"/>
      <point x="624" y="638" type="curve"/>
      <point x="624" y="498" type="line"/>
      <point x="576" y="555"/>
      <point x="504" y="597"/>
      <point x="405" y="597" type="curve" smooth="yes"/>
      <point x="277" y="597"/>
      <point x="166" y="499"/>
    </contour>
    <contour>
      <point x="386" y="58" type="line"/>
      <point x="467" y="57" type="line"/>
      <point x="386" y="-70" type="line"/>
      <point x="300" y="-120" type="line"/>
    </contour>
    <contour>
      <point x="494" y="-141" type="curve"/>
      <point x="422" y="-138" type="line"/>
      <point x="422" y="-113"/>
      <point x="400" y="-103"/>
      <point x="367" y="-103" type="curve" smooth="yes"/>
      <point x="357" y="-103"/>
      <point x="328" y="-104"/>
      <point x="300" y="-120" type="curve"/>
      <point x="350" y="-79" type="line"/>
      <point x="376" y="-59"/>
      <point x="394" y="-58"/>
      <point x="414" y="-58" type="curve" smooth="yes"/>
      <point x="450" y="-58"/>
      <point x="494" y="-85"/>
    </contour>
    <contour>
      <point x="494" y="-141" type="line"/>
      <point x="494" y="-207"/>
      <point x="436" y="-241"/>
      <point x="378" y="-241" type="curve" smooth="yes"/>
      <point x="334" y="-241"/>
      <point x="303" y="-232"/>
      <point x="267" y="-203" type="curve"/>
      <point x="305" y="-151" type="line"/>
      <point x="327" y="-168"/>
      <point x="346" y="-176"/>
      <point x="370" y="-176" type="curve" smooth="yes"/>
      <point x="404" y="-176"/>
      <point x="422" y="-162"/>
      <point x="422" y="-138" type="curve"/>
    </contour>
  </outline>
</glyph>
<glyph name="Igrave" format="1">
  <advance width="275"/>
  <unicode hex="00CC"/>
  <outline>
    <contour>
      <point x="78" y="700" type="line"/>
      <point x="198" y="700" type="line"/>
      <point x="198" y="0" type="line"/>
      <point x="78" y="0" type="line"/>
    </contour>
    <contour>
      <point x="-8" y="925" type="line"/>
      <point x="84" y="970" type="line"/>
      <point x="234" y="810" type="line"/>
      <point x="172" y="775" type="line"/>
    </contour>
  </outline>
</glyph>
<glyph name="Idieresis" format="1">
  <advance width="275"/>
  <unicode hex="00CF"/>
  <outline>
    <contour>
      <point x="78" y="700" type="line"/>
      <point x="198" y="700" type="line"/>
      <point x="198" y="0" type="line"/>
      <point x="78" y="0" type="line"/>
    </contour>
    <contour>
      <point x="176" y="842" type="curve" smooth="yes"/>
      <point x="176" y="880"/>
      <point x="206" y="912"/>
      <point x="246" y="912" type="curve" smooth="yes"/>
      <point x="286" y="912"/>
      <point x="318" y="880"/>
      <point x="318" y="842" type="curve" smooth="yes"/>
      <point x="318" y="804"/>
      <point x="286" y="772"/>
      <point x="246" y="772" type="curve" smooth="yes"/>
      <point x="206" y="772"/>
      <point x="176" y="804"/>
    </contour>
    <contour>
      <point x="-42" y="842" type="curve" smooth="yes"/>
      <point x="-42" y="880"/>
      <point x="-12" y="912"/>
      <point x="28" y="912" type="curve" smooth="yes"/>
      <point x="68" y="912"/>
      <point x="100" y="880"/>
      <point x="100" y="842" type="curve" smooth="yes"/>
      <point x="100" y="804"/>
      <point x="68" y="772"/>
      <point x="28" y="772" type="curve" smooth="yes"/>
      <point x="-12" y="772"/>
      <point x="-42" y="804"/>
    </contour>
  </outline>
</glyph>
<glyph name="Ntilde" format="1">
  <advance width="782"/>
  <unicode hex="00D1"/>
  <outline>
    <contour>
      <point x="82" y="572" type="line"/>
      <point x="78" y="735" type="line"/>
      <point x="700" y="128" type="line"/>
      <point x="705" y="-35" type="line"/>
    </contour>
    <contour>
      <point x="589" y="700" type="line"/>
      <point x="705" y="700" type="line"/>
      <point x="705" y="-35" type="line"/>
      <point x="589" y="105" type="line"/>
    </contour>
    <contour>
      <point x="78" y="735" type="line"/>
      <point x="194" y="595" type="line"/>
      <point x="194" y="0" type="line"/>
      <point x="78" y="0" type="line"/>
    </contour>
    <contour>
      <point x="225" y="811" type="line"/>
      <point x="235" y="860"/>
      <point x="284" y="893"/>
      <point x="329" y="893" type="curve" smooth="yes"/>
      <point x="394" y="893"/>
      <point x="399" y="846"/>
      <point x="453" y="846" type="curve" smooth="yes"/>
      <point x="472" y="846"/>
      <point x="489" y="862"/>
      <point x="509" y="894" type="curve"/>
      <point x="555" y="851" type="line"/>
      <point x="539" y="814"/>
      <point x="499" y="778"/>
      <point x="449" y="778" type="curve" smooth="yes"/>
      <point x="394" y="778"/>
      <point x="373" y="825"/>
      <point x="328" y="825" type="curve" smooth="yes"/>
      <point x="287" y="825"/>
      <point x="278" y="789"/>
      <point x="278" y="774" type="curve"/>
    </contour>
  </outline>
</glyph>
<glyph name="Ograve" format="1">
  <advance width="802"/>
  <unicode hex="00D2"/>
  <outline>
    <contour>
      <point x="163" y="350" type="curve" smooth="yes"/>
      <point x="163" y="206"/>
      <point x="262" y="101"/>
      <point x="401" y="101" type="curve" smooth="yes"/>
      <point x="540" y="101"/>
      <point x="639" y="206"/>
      <point x="639" y="350" type="curve" smooth="yes"/>
      <point x="639" y="494"/>
      <point x="541" y="599"/>
      <point x="401" y="599" type="curve" smooth="yes"/>
      <point x="262" y="599"/>
      <point x="163" y="494"/>
    </contour>
    <contour>
      <point x="38" y="350" type="curve" smooth="yes"/>
      <point x="38" y="559"/>
      <point x="193" y="712"/>
      <point x="401" y="712" type="curve" smooth="yes"/>
      <point x="610" y="712"/>
      <point x="765" y="559"/>
      <point x="765" y="350" type="curve" smooth="yes"/>
      <point x="765" y="141"/>
      <point x="611" y="-15"/>
      <point x="401" y="-15" type="curve" smooth="yes"/>
      <point x="191" y="-15"/>
      <point x="38" y="141"/>
    </contour>
    <contour>
      <point x="270" y="925" type="line"/>
      <point x="361" y="970" type="line"/>
      <point x="511" y="810" type="line"/>
      <point x="450" y="775" type="line"/>
    </contour>
  </outline>
</glyph>
<glyph name="adieresis" format="1">
  <advance width="508"/>
  <unicode hex="00E4"/>
  <outline>
    <contour>
      <point x="137" y="136" type="curve" smooth="yes"/>
      <point x="137" y="93"/>
      <point x="168" y="72"/>
      <point x="222" y="72" type="curve" smooth="yes"/>
      <point x="292" y="72"/>
      <point x="345" y="101"/>
      <point x="345" y="182" type="curve"/>
      <point x="361" y="130" type="line"/>
      <point x="361" y="41"/>
      <point x="284" y="-10"/>
      <point x="189" y="-10" type="curve" smooth="yes"/>
      <point x="91" y="-10"/>
      <point x="28" y="41"/>
      <point x="28" y="126" type="curve" smooth="yes"/>
      <point x="28" y="228"/>
      <point x="111" y="283"/>
      <point x="225" y="283" type="curve" smooth="yes"/>
      <point x="305" y="283"/>
      <point x="362" y="246"/>
      <point x="378" y="227" type="curve"/>
      <point x="378" y="170" type="line"/>
      <point x="337" y="200"/>
      <point x="297" y="214"/>
      <point x="241" y="214" type="curve" smooth="yes"/>
      <point x="172" y="214"/>
      <point x="137" y="184"/>
    </contour>
    <contour>
      <point x="114" y="338" type="curve"/>
      <point x="70" y="416" type="line"/>
      <point x="112" y="441"/>
      <point x="176" y="471"/>
      <point x="259" y="471" type="curve" smooth="yes"/>
      <point x="372" y="471"/>
      <point x="451" y="420"/>
      <point x="451" y="328" type="curve" smooth="yes"/>
      <point x="451" y="0" type="line"/>
      <point x="345" y="0" type="line"/>
      <point x="345" y="316" type="line" smooth="yes"/>
      <point x="345" y="359"/>
      <point x="304" y="383"/>
      <point x="254" y="383" type="curve" smooth="yes"/>
      <point x="188" y="383"/>
      <point x="136" y="353"/>
    </contour>
    <contour>
      <point x="300" y="597" type="curve" smooth="yes"/>
      <point x="300" y="634"/>
      <point x="330" y="663"/>
      <point x="368" y="663" type="curve" smooth="yes"/>
      <point x="406" y="663"/>
      <point x="436" y="634"/>
      <point x="436" y="597" type="curve" smooth="yes"/>
      <point x="436" y="560"/>
      <point x="406" y="531"/>
      <point x="368" y="531" type="curve" smooth="yes"/>
      <point x="330" y="531"/>
      <point x="300" y="560"/>
    </contour>
    <contour>
      <point x="82" y="597" type="curve" smooth="yes"/>
      <point x="82" y="634"/>
      <point x="112" y="663"/>
      <point x="150" y="663" type="curve" smooth="yes"/>
      <point x="188" y="663"/>
      <point x="219" y="634"/>
      <point x="219" y="597" type="curve" smooth="yes"/>
      <point x="219" y="560"/>
      <point x="188" y="531"/>
      <point x="150" y="531" type="curve" smooth="yes"/>
      <point x="112" y="531"/>
      <point x="82" y="560"/>
    </contour>
  </outline>
</glyph>
<glyph name="eacute" format="1">
  <advance width="538"/>
  <unicode hex="00E9"/>
  <outline>
    <contour>
      <point x="96" y="205" type="line"/>
      <point x="96" y="280" type="line"/>
      <point x="484" y="280" type="line"/>
      <point x="502" y="205" type="line"/>
    </contour>
    <contour>
      <point x="389" y="248" type="line" smooth="yes"/>
      <point x="389" y="332"/>
      <point x="353" y="388"/>
      <point x="273" y="388" type="curve" smooth="yes"/>
      <point x="201" y="388"/>
      <point x="146" y="339"/>
      <point x="146" y="258" type="curve"/>
      <point x="144" y="230" type="line"/>
      <point x="144" y="129"/>
      <point x="196" y="79"/>
      <point x="274" y="79" type="curve" smooth="yes"/>
      <point x="336" y="79"/>
      <point x="379" y="107"/>
      <point x="406" y="152" type="curve"/>
      <point x="500" y="114" type="line"/>
      <point x="454" y="39"/>
      <point x="393" y="-10"/>
      <point x="269" y="-10" type="curve" smooth="yes"/>
      <point x="127" y="-10"/>
      <point x="34" y="91"/>
      <point x="34" y="230" type="curve" smooth="yes"/>
      <point x="34" y="247"/>
      <point x="35" y="263"/>
      <point x="38" y="279" type="curve" smooth="yes"/>
      <point x="57" y="392"/>
      <point x="142" y="470"/>
      <point x="274" y="470" type="curve" smooth="yes"/>
      <point x="416" y="470"/>
      <point x="504" y="380"/>
      <point x="504" y="235" type="curve" smooth="yes"/>
      <point x="504" y="227"/>
      <point x="503" y="216"/>
      <point x="502" y="205" type="curve"/>
      <point x="389" y="225" type="line"/>
    </contour>
    <contour>
      <point x="434" y="695" type="line"/>
      <point x="254" y="545" type="line"/>
      <point x="193" y="580" type="line"/>
      <point x="343" y="740" type="line"/>
    </contour>
  </outline>
</glyph>
<glyph name="edieresis" format="1">
  <advance width="534"/>
  <unicode hex="00EB"/>
  <outline>
    <contour>
      <point x="96" y="205" type="line"/>
      <point x="96" y="282" type="line"/>
      <point x="478" y="282" type="line"/>
      <point x="497" y="205" type="line"/>
    </contour>
    <contour>
      <point x="393" y="248" type="line" smooth="yes"/>
      <point x="393" y="329"/>
      <point x="355" y="384"/>
      <point x="273" y="384" type="curve" smooth="yes"/>
      <point x="199" y="384"/>
      <point x="142" y="337"/>
      <point x="142" y="258" type="curve"/>
      <point x="140" y="230" type="line"/>
      <point x="140" y="133"/>
      <point x="196" y="81"/>
      <point x="278" y="81" type="curve" smooth="yes"/>
      <point x="336" y="81"/>
      <point x="375" y="107"/>
      <point x="400" y="152" type="curve"/>
      <point x="490" y="111" type="line"/>
      <point x="448" y="40"/>
      <point x="389" y="-10"/>
      <point x="269" y="-10" type="curve" smooth="yes"/>
      <point x="135" y="-10"/>
      <point x="36" y="91"/>
      <point x="36" y="230" type="curve" smooth="yes"/>
      <point x="36" y="247"/>
      <point x="37" y="264"/>
      <point x="40" y="280" type="curve" smooth="yes"/>
      <point x="59" y="393"/>
      <point x="151" y="470"/>
      <point x="274" y="470" type="curve" smooth="yes"/>
      <point x="404" y="470"/>
      <point x="498" y="380"/>
      <point x="498" y="235" type="curve" smooth="yes"/>
      <point x="498" y="227"/>
      <point x="498" y="216"/>
      <point x="497" y="205" type="curve"/>
      <point x="393" y="225" type="line"/>
    </contour>
    <contour>
      <point x="315" y="596" type="curve" smooth="yes"/>
      <point x="315" y="633"/>
      <point x="345" y="662"/>
      <point x="383" y="662" type="curve" smooth="yes"/>
      <point x="421" y="662"/>
      <point x="451" y="633"/>
      <point x="451" y="596" type="curve" smooth="yes"/>
      <point x="451" y="559"/>
      <point x="421" y="530"/>
      <point x="383" y="530" type="curve" smooth="yes"/>
      <point x="345" y="530"/>
      <point x="315" y="559"/>
    </contour>
    <contour>
      <point x="97" y="596" type="curve" smooth="yes"/>
      <point x="97" y="633"/>
      <point x="127" y="662"/>
      <point x="165" y="662" type="curve" smooth="yes"/>
      <point x="203" y="662"/>
      <point x="234" y="633"/>
      <point x="234" y="596" type="curve" smooth="yes"/>
      <point x="234" y="559"/>
      <point x="203" y="530"/>
      <point x="165" y="530" type="curve" smooth="yes"/>
      <point x="127" y="530"/>
      <point x="97" y="559"/>
    </contour>
  </outline>
</glyph>
<glyph name="idieresis" format="1">
  <advance width="266"/>
  <unicode hex="00EF"/>
  <outline>
    <contour>
      <point x="80" y="460" type="line"/>
      <point x="186" y="460" type="line"/>
      <point x="186" y="0" type="line"/>
      <point x="80" y="0" type="line"/>
    </contour>
    <contour>
      <point x="173" y="614" type="curve" smooth="yes"/>
      <point x="173" y="651"/>
      <point x="204" y="680"/>
      <point x="242" y="680" type="curve" smooth="yes"/>
      <point x="280" y="680"/>
      <point x="310" y="651"/>
      <point x="310" y="614" type="curve" smooth="yes"/>
      <point x="310" y="577"/>
      <point x="280" y="548"/>
      <point x="242" y="548" type="curve" smooth="yes"/>
      <point x="204" y="548"/>
      <point x="173" y="577"/>
    </contour>
    <contour>
      <point x="-44" y="614" type="curve" smooth="yes"/>
      <point x="-44" y="651"/>
      <point x="-14" y="680"/>
      <point x="24" y="680" type="curve" smooth="yes"/>
      <point x="62" y="680"/>
      <point x="92" y="651"/>
      <point x="92" y="614" type="curve" smooth="yes"/>
      <point x="92" y="577"/>
      <point x="62" y="548"/>
      <point x="24" y="548" type="curve" smooth="yes"/>
      <point x="-14" y="548"/>
      <point x="-44" y="577"/>
    </contour>
  </outline>
</glyph>
<glyph name="ntilde" format="1">
  <advance width="545"/>
  <unicode hex="00F1"/>
  <outline>
    <contour>
      <point x="178" y="460" type="line"/>
      <point x="178" y="0" type="line"/>
      <point x="69" y="0" type="line"/>
      <point x="69" y="460" type="line"/>
    </contour>
    <contour>
      <point x="365" y="280" type="line" smooth="yes"/>
      <point x="365" y="347"/>
      <point x="339" y="383"/>
      <point x="280" y="383" type="curve" smooth="yes"/>
      <point x="219" y="383"/>
      <point x="178" y="341"/>
      <point x="178" y="280" type="curve"/>
      <point x="144" y="278" type="line"/>
      <point x="144" y="387"/>
      <point x="214" y="470"/>
      <point x="316" y="470" type="curve" smooth="yes"/>
      <point x="418" y="470"/>
      <point x="476" y="408"/>
      <point x="476" y="292" type="curve" smooth="yes"/>
      <point x="476" y="0" type="line"/>
      <point x="365" y="0" type="line"/>
    </contour>
    <contour>
      <point x="96" y="579" type="line"/>
      <point x="106" y="628"/>
      <point x="154" y="666"/>
      <point x="206" y="666" type="curve" smooth="yes"/>
      <point x="272" y="666"/>
      <point x="279" y="617"/>
      <point x="334" y="617" type="curve" smooth="yes"/>
      <point x="356" y="617"/>
      <point x="374" y="635"/>
      <point x="394" y="667" type="curve"/>
      <point x="450" y="611" type="line"/>
      <point x="434" y="574"/>
      <point x="388" y="533"/>
      <point x="333" y="533" type="curve" smooth="yes"/>
      <point x="278" y="533"/>
      <point x="252" y="583"/>
      <point x="205" y="583" type="curve" smooth="yes"/>
      <point x="165" y="583"/>
      <point x="156" y="547"/>
      <point x="156" y="532" type="curve"/>
    </contour>
  </outline>
</glyph>
<glyph name="udieresis" format="1">
  <advance width="545"/>
  <unicode hex="00FC"/>
  <outline>
    <contour>
      <point x="368" y="0" type="line"/>
      <point x="368" y="460" type="line"/>
      <point x="476" y="460" type="line"/>
      <point x="476" y="0" type="line"/>
    </contour>
    <contour>
      <point x="180" y="180" type="line" smooth="yes"/>
      <point x="180" y="113"/>
      <point x="206" y="77"/>
      <point x="265" y="77" type="curve" smooth="yes"/>
      <point x="326" y="77"/>
      <point x="368" y="119"/>
      <point x="368" y="180" type="curve"/>
      <point x="400" y="182" type="line"/>
      <point x="400" y="73"/>
      <point x="332" y="-10"/>
      <point x="229" y="-10" type="curve" smooth="yes"/>
      <point x="126" y="-10"/>
      <point x="69" y="52"/>
      <point x="69" y="168" type="curve" smooth="yes"/>
      <point x="69" y="460" type="line"/>
      <point x="180" y="460" type="line"/>
    </contour>
    <contour>
      <point x="314" y="608" type="curve" smooth="yes"/>
      <point x="314" y="645"/>
      <point x="343" y="674"/>
      <point x="381" y="674" type="curve" smooth="yes"/>
      <point x="419" y="674"/>
      <point x="450" y="645"/>
      <point x="450" y="608" type="curve" smooth="yes"/>
      <point x="450" y="571"/>
      <point x="419" y="542"/>
      <point x="381" y="542" type="curve" smooth="yes"/>
      <point x="343" y="542"/>
      <point x="314" y="571"/>
    </contour>
    <contour>
      <point x="96" y="608" type="curve" smooth="yes"/>
      <point x="96" y="645"/>
      <point x="126" y="674"/>
      <point x="164" y="674" type="curve" smooth="yes"/>
      <point x="202" y="674"/>
      <point x="232" y="645"/>
      <point x="232" y="608" type="curve" smooth="yes"/>
      <point x="232" y="571"/>
      <point x="202" y="542"/>
      <point x="164" y="542" type="curve" smooth="yes"/>
      <point x="126" y="542"/>
      <point x="96" y="571"/>
    </contour>
  </outline>
</glyph>
<glyph name="thorn" format="1">
  <advance width="586"/>
  <unicode hex="00FE"/>
  <outline>
    <contour>
      <point x="172" y="-220" type="line"/>
      <point x="66" y="-220" type="line"/>
      <point x="66" y="780" type="line"/>
      <point x="172" y="780" type="line"/>
    </contour>
    <contour>
      <point x="553" y="230" type="curve" smooth="yes"/>
      <point x="553" y="79"/>
      <point x="450" y="-10"/>
      <point x="329" y="-10" type="curve" smooth="yes"/>
      <point x="214" y="-10"/>
      <point x="133" y="81"/>
      <point x="133" y="230" type="curve" smooth="yes"/>
      <point x="133" y="379"/>
      <point x="214" y="470"/>
      <point x="329" y="470" type="curve" smooth="yes"/>
      <point x="450" y="470"/>
      <point x="553" y="381"/>
    </contour>
    <contour>
      <point x="444" y="230" type="curve" smooth="yes"/>
      <point x="444" y="324"/>
      <point x="380" y="378"/>
      <point x="304" y="378" type="curve" smooth="yes"/>
      <point x="241" y="378"/>
      <point x="172" y="325"/>
      <point x="172" y="230" type="curve" smooth="yes"/>
      <point x="172" y="135"/>
      <point x="241" y="82"/>
      <point x="304" y="82" type="curve" smooth="yes"/>
      <point x="380" y="82"/>
      <point x="444" y="136"/>
    </contour>
  </outline>
</glyph>
<glyph name="aogonek" format="1">
  <advance width="508"/>
  <unicode hex="0105"/>
  <outline>
    <contour>
      <point x="137" y="136" type="curve" smooth="yes"/>
      <point x="137" y="93"/>
      <point x="168" y="72"/>
      <point x="222" y="72" type="curve" smooth="yes"/>
      <point x="292" y="72"/>
      <point x="345" y="101"/>
      <point x="345" y="182" type="curve"/>
      <point x="361" y="130" type="line"/>
      <point x="361" y="41"/>
      <point x="284" y="-10"/>
      <point x="189" y="-10" type="curve" smooth="yes"/>
      <point x="91" y="-10"/>
      <point x="28" y="41"/>
      <point x="28" y="126" type="curve" smooth="yes"/>
      <point x="28" y="228"/>
      <point x="111" y="283"/>
      <point x="225" y="283" type="curve" smooth="yes"/>
      <point x="305" y="283"/>
      <point x="362" y="246"/>
      <point x="378" y="227" type="curve"/>
      <point x="378" y="170" type="line"/>
      <point x="337" y="200"/>
      <point x="297" y="214"/>
      <point x="241" y="214" type="curve" smooth="yes"/>
      <point x="172" y="214"/>
      <point x="137" y="184"/>
    </contour>
    <contour>
      <point x="114" y="338" type="curve"/>
      <point x="70" y="416" type="line"/>
      <point x="112" y="441"/>
      <point x="176" y="471"/>
      <point x="259" y="471" type="curve" smooth="yes"/>
      <point x="371" y="471"/>
      <point x="451" y="420"/>
      <point x="451" y="328" type="curve" smooth="yes"/>
      <point x="451" y="0" type="line"/>
      <point x="345" y="0" type="line"/>
      <point x="345" y="316" type="line" smooth="yes"/>
      <point x="345" y="359"/>
      <point x="304" y="383"/>
      <point x="254" y="383" type="curve" smooth="yes"/>
      <point x="188" y="383"/>
      <point x="136" y="353"/>
    </contour>
    <contour>
      <point x="447" y="-122" type="curve"/>
      <point x="480" y="-179" type="line"/>
      <point x="465" y="-199"/>
      <point x="435" y="-219"/>
      <point x="387" y="-219" type="curve" smooth="yes"/>
      <point x="311" y="-219"/>
      <point x="267" y="-181"/>
      <point x="267" y="-119" type="curve"/>
      <point x="354" y="-97" type="line"/>
      <point x="354" y="-129"/>
      <point x="369" y="-142"/>
      <point x="397" y="-142" type="curve" smooth="yes"/>
      <point x="421" y="-142"/>
      <point x="433" y="-135"/>
    </contour>
    <contour>
      <point x="354" y="-97" type="curve"/>
      <point x="267" y="-119" type="line"/>
      <point x="267" y="-57"/>
      <point x="331" y="-10"/>
      <point x="401" y="26" type="curve"/>
      <point x="442" y="1" type="line"/>
      <point x="390" y="-23"/>
      <point x="354" y="-63"/>
    </contour>
  </outline>
</glyph>
<glyph name="ccircumflex" format="1">
  <advance width="484"/>
  <unicode hex="0109"/>
  <outline>
    <contour>
      <point x="141" y="230" type="curve" smooth="yes"/>
      <point x="141" y="143"/>
      <point x="203" y="83"/>
      <point x="284" y="83" type="curve" smooth="yes"/>
      <point x="350" y="83"/>
      <point x="410" y="117"/>
      <point x="434" y="161" type="curve"/>
      <point x="434" y="42" type="line"/>
      <point x="402" y="9"/>
      <point x="345" y="-10"/>
      <point x="279" y="-10" type="curve" smooth="yes"/>
      <point x="137" y="-10"/>
      <point x="30" y="88"/>
      <point x="30" y="230" type="curve" smooth="yes"/>
      <point x="30" y="372"/>
      <point x="137" y="470"/>
      <point x="279" y="470" type="curve" smooth="yes"/>
      <point x="345" y="470"/>
      <point x="402" y="449"/>
      <point x="434" y="418" type="curve"/>
      <point x="434" y="299" type="line"/>
      <point x="410" y="343"/>
      <point x="348" y="377"/>
      <point x="284" y="377" type="curve" smooth="yes"/>
      <point x="203" y="377"/>
      <point x="141" y="315"/>
    </contour>
    <contour>
      <point x="267" y="622" type="line"/>
      <point x="164" y="530" type="line"/>
      <point x="92" y="583" type="line"/>
      <point x="267" y="723" type="line"/>
      <point x="442" y="583" type="line"/>
      <point x="369" y="530" type="line"/>
    </contour>
  </outline>
</glyph>
<glyph name="cdotaccent" format="1">
  <advance width="484"/>
  <unicode hex="010B"/>
  <outline>
    <contour>
      <point x="141" y="230" type="curve" smooth="yes"/>
      <point x="141" y="143"/>
      <point x="203" y="83"/>
      <point x="284" y="83" type="curve" smooth="yes"/>
      <point x="350" y="83"/>
      <point x="410" y="116"/>
      <point x="434" y="161" type="curve"/>
      <point x="434" y="42" type="line"/>
      <point x="402" y="9"/>
      <point x="345" y="-10"/>
      <point x="279" y="-10" type="curve" smooth="yes"/>
      <point x="136" y="-10"/>
      <point x="30" y="88"/>
      <point x="30" y="230" type="curve" smooth="yes"/>
      <point x="30" y="372"/>
      <point x="136" y="470"/>
      <point x="279" y="470" type="curve" smooth="yes"/>
      <point x="345" y="470"/>
      <point x="402" y="450"/>
      <point x="434" y="419" type="curve"/>
      <point x="434" y="299" type="line"/>
      <point x="410" y="344"/>
      <point x="348" y="377"/>
      <point x="284" y="377" type="curve" smooth="yes"/>
      <point x="203" y="377"/>
      <point x="141" y="315"/>
    </contour>
    <contour>
      <point x="199" y="596" type="curve" smooth="yes"/>
      <point x="199" y="633"/>
      <point x="229" y="662"/>
      <point x="267" y="662" type="curve" smooth="yes"/>
      <point x="305" y="662"/>
      <point x="335" y="633"/>
      <point x="335" y="596" type="curve" smooth="yes"/>
      <point x="335" y="559"/>
      <point x="305" y="530"/>
      <point x="267" y="530" type="curve" smooth="yes"/>
      <point x="229" y="530"/>
      <point x="199" y="559"/>
    </contour>
  </outline>
</glyph>
<glyph name="Ccaron" format="1">
  <advance width="691"/>
  <unicode hex="010C"/>
  <outline>
    <contour>
      <point x="166" y="350" type="curve" smooth="yes"/>
      <point x="166" y="201"/>
      <point x="277" y="103"/>
      <point x="405" y="103" type="curve" smooth="yes"/>
      <point x="504" y="103"/>
      <point x="576" y="145"/>
      <point x="624" y="202" type="curve"/>
      <point x="624" y="62" type="line"/>
      <point x="566" y="14"/>
      <point x="503" y="-12"/>
      <point x="401" y="-12" type="curve" smooth="yes"/>
      <point x="195" y="-12"/>
      <point x="38" y="137"/>
      <point x="38" y="350" type="curve" smooth="yes"/>
      <point x="38" y="563"/>
      <point x="195" y="712"/>
      <point x="401" y="712" type="curve" smooth="yes"/>
      <point x="503" y="712"/>
      <point x="566" y="686"/>
      <point x="624" y="638" type="curve"/>
      <point x="624" y="498" type="line"/>
      <point x="576" y="555"/>
      <point x="504" y="597"/>
      <point x="405" y="597" type="curve" smooth="yes"/>
      <point x="277" y="597"/>
      <point x="166" y="499"/>
    </contour>
    <contour>
      <point x="401" y="874" type="line"/>
      <point x="504" y="965" type="line"/>
      <point x="576" y="912" type="line"/>
      <point x="401" y="772" type="line"/>
      <point x="226" y="912" type="line"/>
      <point x="299" y="965" type="line"/>
    </contour>
  </outline>
</glyph>
<glyph name="edotaccent" format="1">
  <advance width="538"/>
  <unicode hex="0117"/>
  <outline>
    <contour>
      <point x="96" y="205" type="line"/>
      <point x="96" y="280" type="line"/>
      <point x="484" y="280" type="line"/>
      <point x="502" y="205" type="line"/>
    </contour>
    <contour>
      <point x="389" y="248" type="line" smooth="yes"/>
      <point x="389" y="332"/>
      <point x="353" y="388"/>
      <point x="273" y="388" type="curve" smooth="yes"/>
      <point x="201" y="388"/>
      <point x="146" y="339"/>
      <point x="146" y="258" type="curve"/>
      <point x="144" y="230" type="line"/>
      <point x="144" y="129"/>
      <point x="196" y="79"/>
      <point x="274" y="79" type="curve" smooth="yes"/>
      <point x="336" y="79"/>
      <point x="379" y="107"/>
      <point x="406" y="152" type="curve"/>
      <point x="500" y="114" type="line"/>
      <point x="454" y="39"/>
      <point x="393" y="-10"/>
      <point x="269" y="-10" type="curve" smooth="yes"/>
      <point x="127" y="-10"/>
      <point x="34" y="91"/>
      <point x="34" y="230" type="curve" smooth="yes"/>
      <point x="34" y="247"/>
      <point x="35" y="263"/>
      <point x="38" y="279" type="curve" smooth="yes"/>
      <point x="57" y="392"/>
      <point x="142" y="470"/>
      <point x="274" y="470" type="curve" smooth="yes"/>
      <point x="416" y="470"/>
      <point x="504" y="380"/>
      <point x="504" y="235" type="curve" smooth="yes"/>
      <point x="504" y="227"/>
      <point x="503" y="216"/>
      <point x="502" y="205" type="curve"/>
      <point x="389" y="225" type="line"/>
    </contour>
    <contour>
      <point x="204" y="600" type="curve" smooth="yes"/>
      <point x="204" y="638"/>
      <point x="234" y="670"/>
      <point x="274" y="670" type="curve" smooth="yes"/>
      <point x="314" y="670"/>
      <point x="345" y="638"/>
      <point x="345" y="600" type="curve" smooth="yes"/>
      <point x="345" y="562"/>
      <point x="314" y="530"/>
      <point x="274" y="530" type="curve" smooth="yes"/>
      <point x="234" y="530"/>
      <point x="204" y="562"/>
    </contour>
  </outline>
</glyph>
<glyph name="eogonek" format="1">
  <advance width="538"/>
  <unicode hex="0119"/>
  <outline>
    <contour>
      <point x="96" y="205" type="line"/>
      <point x="96" y="280" type="line"/>
      <point x="484" y="280" type="line"/>
      <point x="502" y="205" type="line"/>
    </contour>
    <contour>
      <point x="389" y="248" type="line" smooth="yes"/>
      <point x="389" y="332"/>
      <point x="353" y="388"/>
      <point x="273" y="388" type="curve" smooth="yes"/>
      <point x="201" y="388"/>
      <point x="146" y="339"/>
      <point x="146" y="258" type="curve"/>
      <point x="144" y="230" type="line"/>
      <point x="144" y="129"/>
      <point x="196" y="79"/>
      <point x="274" y="79" type="curve" smooth="yes"/>
      <point x="336" y="79"/>
      <point x="379" y="107"/>
      <point x="406" y="152" type="curve"/>
      <point x="500" y="114" type="line"/>
      <point x="454" y="39"/>
      <point x="393" y="-10"/>
      <point x="269" y="-10" type="curve" smooth="yes"/>
      <point x="127" y="-10"/>
      <point x="34" y="91"/>
      <point x="34" y="230" type="curve" smooth="yes"/>
      <point x="34" y="247"/>
      <point x="35" y="263"/>
      <point x="38" y="279" type="curve" smooth="yes"/>
      <point x="57" y="392"/>
      <point x="142" y="470"/>
      <point x="274" y="470" type="curve" smooth="yes"/>
      <point x="416" y="470"/>
      <point x="504" y="380"/>
      <point x="504" y="235" type="curve" smooth="yes"/>
      <point x="504" y="227"/>
      <point x="503" y="216"/>
      <point x="502" y="205" type="curve"/>
      <point x="389" y="225" type="line"/>
    </contour>
    <contour>
      <point x="313" y="-126" type="curve"/>
      <point x="346" y="-184" type="line"/>
      <point x="331" y="-204"/>
      <point x="301" y="-224"/>
      <point x="253" y="-224" type="curve" smooth="yes"/>
      <point x="177" y="-224"/>
      <point x="132" y="-186"/>
      <point x="132" y="-124" type="curve"/>
      <point x="220" y="-102" type="line"/>
      <point x="220" y="-134"/>
      <point x="235" y="-146"/>
      <point x="263" y="-146" type="curve" smooth="yes"/>
      <point x="287" y="-146"/>
      <point x="299" y="-139"/>
    </contour>
    <contour>
      <point x="220" y="-102" type="curve"/>
      <point x="132" y="-124" type="line"/>
      <point x="132" y="-62"/>
      <point x="197" y="-15"/>
      <point x="267" y="21" type="curve"/>
      <point x="308" y="-4" type="line"/>
      <point x="256" y="-28"/>
      <point x="220" y="-68"/>
    </contour>
  </outline>
</glyph>
<glyph name="Iogonek" format="1">
  <advance width="275"/>
  <unicode hex="012E"/>
  <outline>
    <contour>
      <point x="78" y="700" type="line"/>
      <point x="198" y="700" type="line"/>
      <point x="198" y="0" type="line"/>
      <point x="78" y="0" type="line"/>
    </contour>
    <contour>
      <point x="191" y="-134" type="curve"/>
      <point x="224" y="-192" type="line"/>
      <point x="209" y="-212"/>
      <point x="180" y="-232"/>
      <point x="132" y="-232" type="curve" smooth="yes"/>
      <point x="56" y="-232"/>
      <point x="11" y="-194"/>
      <point x="11" y="-132" type="curve"/>
      <point x="98" y="-110" type="line"/>
      <point x="98" y="-142"/>
      <point x="113" y="-154"/>
      <point x="141" y="-154" type="curve" smooth="yes"/>
      <point x="165" y="-154"/>
      <point x="177" y="-147"/>
    </contour>
    <contour>
      <point x="98" y="-110" type="curve"/>
      <point x="11" y="-132" type="line"/>
      <point x="11" y="-70"/>
      <point x="75" y="-23"/>
      <point x="145" y="13" type="curve"/>
      <point x="186" y="-12" type="line"/>
      <point x="134" y="-36"/>
      <point x="98" y="-76"/>
    </contour>
  </outline>
</glyph>
<glyph name="iogonek" format="1">
  <advance width="266"/>
  <unicode hex="012F"/>
  <outline>
    <contour>
      <point x="65" y="643" type="curve" smooth="yes"/>
      <point x="65" y="680"/>
      <point x="95" y="709"/>
      <point x="133" y="709" type="curve" smooth="yes"/>
      <point x="171" y="709"/>
      <point x="202" y="680"/>
      <point x="202" y="643" type="curve" smooth="yes"/>
      <point x="202" y="606"/>
      <point x="171" y="577"/>
      <point x="133" y="577" type="curve" smooth="yes"/>
      <point x="95" y="577"/>
      <point x="65" y="606"/>
    </contour>
    <contour>
      <point x="80" y="460" type="line"/>
      <point x="186" y="460" type="line"/>
      <point x="186" y="0" type="line"/>
      <point x="80" y="0" type="line"/>
    </contour>
    <contour>
      <point x="186" y="-134" type="curve"/>
      <point x="220" y="-192" type="line"/>
      <point x="205" y="-212"/>
      <point x="175" y="-232"/>
      <point x="127" y="-232" type="curve" smooth="yes"/>
      <point x="51" y="-232"/>
      <point x="6" y="-194"/>
      <point x="6" y="-132" type="curve"/>
      <point x="94" y="-110" type="line"/>
      <point x="94" y="-142"/>
      <point x="108" y="-154"/>
      <point x="136" y="-154" type="curve" smooth="yes"/>
      <point x="160" y="-154"/>
      <point x="172" y="-147"/>
    </contour>
    <contour>
      <point x="94" y="-110" type="curve"/>
      <point x="6" y="-132" type="line"/>
      <point x="6" y="-70"/>
      <point x="70" y="-23"/>
      <point x="140" y="13" type="curve"/>
      <point x="182" y="-12" type="line"/>
      <point x="130" y="-36"/>
      <point x="94" y="-76"/>
    </contour>
  </outline>
</glyph>
<glyph name="Idotaccent" format="1">
  <advance width="275"/>
  <unicode hex="0130"/>
  <outline>
    <contour>
      <point x="78" y="700" type="line"/>
      <point x="197" y="700" type="line"/>
      <point x="197" y="0" type="line"/>
      <point x="78" y="0" type="line"/>
    </contour>
    <contour>
      <point x="69" y="838" type="curve" smooth="yes"/>
      <point x="69" y="875"/>
      <point x="99" y="904"/>
      <point x="137" y="904" type="curve" smooth="yes"/>
      <point x="175" y="904"/>
      <point x="205" y="875"/>
      <point x="205" y="838" type="curve" smooth="yes"/>
      <point x="205" y="801"/>
      <point x="175" y="772"/>
      <point x="137" y="772" type="curve" smooth="yes"/>
      <point x="99" y="772"/>
      <point x="69" y="801"/>
    </contour>
  </outline>
</glyph>
<glyph name="Ldot" format="1">
  <advance width="481"/>
  <unicode hex="013F"/>
  <outline>
    <contour>
      <point x="151" y="0" type="line"/>
      <point x="151" y="106" type="line"/>
      <point x="474" y="106" type="line"/>
      <point x="474" y="0" type="line"/>
    </contour>
    <contour>
      <point x="78" y="700" type="line"/>
      <point x="196" y="700" type="line"/>
      <point x="196" y="0" type="line"/>
      <point x="78" y="0" type="line"/>
    </contour>
    <contour>
      <point x="285" y="416" type="curve" smooth="yes"/>
      <point x="285" y="454"/>
      <point x="316" y="486"/>
      <point x="356" y="486" type="curve" smooth="yes"/>
      <point x="396" y="486"/>
      <point x="426" y="454"/>
      <point x="426" y="416" type="curve" smooth="yes"/>
      <point x="426" y="378"/>
      <point x="396" y="346"/>
      <point x="356" y="346" type="curve" smooth="yes"/>
      <point x="316" y="346"/>
      <point x="285" y="378"/>
    </contour>
  </outline>
</glyph>
<glyph name="ldot" format="1">
  <advance width="412"/>
  <unicode hex="0140"/>
  <outline>
    <contour>
      <point x="69" y="780" type="line"/>
      <point x="178" y="780" type="line"/>
      <point x="178" y="0" type="line"/>
      <point x="69" y="0" type="line"/>
    </contour>
    <contour>
      <point x="230" y="412" type="curve" smooth="yes"/>
      <point x="230" y="450"/>
      <point x="261" y="482"/>
      <point x="301" y="482" type="curve" smooth="yes"/>
      <point x="341" y="482"/>
      <point x="372" y="450"/>
      <point x="372" y="412" type="curve" smooth="yes"/>
      <point x="372" y="374"/>
      <point x="341" y="342"/>
      <point x="301" y="342" type="curve" smooth="yes"/>
      <point x="261" y="342"/>
      <point x="230" y="374"/>
    </contour>
  </outline>
</glyph>
<glyph name="Lslash" format="1">
  <advance width="480"/>
  <unicode hex="0141"/>
  <outline>
    <contour>
      <point x="5" y="329" type="line"/>
      <point x="-22" y="391" type="line"/>
      <point x="282" y="588" type="line"/>
      <point x="309" y="526" type="line"/>
    </contour>
    <contour>
      <point x="155" y="0" type="line"/>
      <point x="155" y="104" type="line"/>
      <point x="471" y="104" type="line"/>
      <point x="471" y="0" type="line"/>
    </contour>
    <contour>
      <point x="78" y="700" type="line"/>
      <point x="193" y="700" type="line"/>
      <point x="193" y="0" type="line"/>
      <point x="78" y="0" type="line"/>
    </contour>
  </outline>
</glyph>
<glyph name="lslash" format="1">
  <advance width="244"/>
  <unicode hex="0142"/>
  <outline>
    <contour>
      <point x="1" y="329" type="line"/>
      <point x="-26" y="391" type="line"/>
      <point x="253" y="565" type="line"/>
      <point x="280" y="504" type="line"/>
    </contour>
    <contour>
      <point x="69" y="780" type="line"/>
      <point x="175" y="780" type="line"/>
      <point x="175" y="0" type="line"/>
      <point x="69" y="0" type="line"/>
    </contour>
  </outline>
</glyph>
<glyph name="Nacute" format="1">
  <advance width="782"/>
  <unicode hex="0143"/>
  <outline>
    <contour>
      <point x="82" y="572" type="line"/>
      <point x="78" y="735" type="line"/>
      <point x="700" y="128" type="line"/>
      <point x="705" y="-35" type="line"/>
    </contour>
    <contour>
      <point x="589" y="700" type="line"/>
      <point x="705" y="700" type="line"/>
      <point x="705" y="-35" type="line"/>
      <point x="589" y="105" type="line"/>
    </contour>
    <contour>
      <point x="78" y="735" type="line"/>
      <point x="194" y="595" type="line"/>
      <point x="194" y="0" type="line"/>
      <point x="78" y="0" type="line"/>
    </contour>
    <contour>
      <point x="532" y="915" type="line"/>
      <point x="352" y="765" type="line"/>
      <point x="291" y="800" type="line"/>
      <point x="441" y="960" type="line"/>
    </contour>
  </outline>
</glyph>
<glyph name="uni0145" format="1">
  <advance width="782"/>
  <unicode hex="0145"/>
  <outline>
    <contour>
      <point x="82" y="572" type="line"/>
      <point x="78" y="735" type="line"/>
      <point x="700" y="128" type="line"/>
      <point x="705" y="-35" type="line"/>
    </contour>
    <contour>
      <point x="589" y="700" type="line"/>
      <point x="705" y="700" type="line"/>
      <point x="705" y="-35" type="line"/>
      <point x="589" y="105" type="line"/>
    </contour>
    <contour>
      <point x="78" y="735" type="line"/>
      <point x="194" y="595" type="line"/>
      <point x="194" y="0" type="line"/>
      <point x="78" y="0" type="line"/>
    </contour>
    <contour>
      <point x="385" y="-42" type="line"/>
      <point x="493" y="-74" type="line"/>
      <point x="377" y="-324" type="line"/>
      <point x="297" y="-302" type="line"/>
    </contour>
  </outline>
</glyph>
<glyph name="Scedilla" format="1">
  <advance width="579"/>
  <unicode hex="015E"/>
  <outline>
    <contour>
      <point x="128" y="236" type="line"/>
      <point x="172" y="145"/>
      <point x="224" y="92"/>
      <point x="306" y="92" type="curve" smooth="yes"/>
      <point x="376" y="92"/>
      <point x="412" y="127"/>
      <point x="412" y="187" type="curve" smooth="yes"/>
      <point x="412" y="265"/>
      <point x="336" y="294"/>
      <point x="256" y="324" type="curve" smooth="yes"/>
      <point x="186" y="350"/>
      <point x="75" y="403"/>
      <point x="75" y="529" type="curve" smooth="yes"/>
      <point x="75" y="640"/>
      <point x="169" y="712"/>
      <point x="295" y="712" type="curve" smooth="yes"/>
      <point x="423" y="712"/>
      <point x="499" y="632"/>
      <point x="527" y="561" type="curve"/>
      <point x="435" y="504" type="line"/>
      <point x="405" y="560"/>
      <point x="367" y="606"/>
      <point x="299" y="606" type="curve" smooth="yes"/>
      <point x="237" y="606"/>
      <point x="198" y="574"/>
      <point x="198" y="523" type="curve" smooth="yes"/>
      <point x="198" y="463"/>
      <point x="275" y="434"/>
      <point x="359" y="403" type="curve" smooth="yes"/>
      <point x="442" y="373"/>
      <point x="536" y="316"/>
      <point x="536" y="192" type="curve" smooth="yes"/>
      <point x="536" y="64"/>
      <point x="451" y="-15"/>
      <point x="302" y="-15" type="curve" smooth="yes"/>
      <point x="182" y="-15"/>
      <point x="82" y="62"/>
      <point x="38" y="177" type="curve"/>
    </contour>
    <contour>
      <point x="296" y="60" type="line"/>
      <point x="376" y="58" type="line"/>
      <point x="296" y="-69" type="line"/>
      <point x="210" y="-119" type="line"/>
    </contour>
    <contour>
      <point x="404" y="-140" type="curve"/>
      <point x="332" y="-136" type="line"/>
      <point x="332" y="-111"/>
      <point x="311" y="-102"/>
      <point x="278" y="-102" type="curve" smooth="yes"/>
      <point x="268" y="-102"/>
      <point x="238" y="-103"/>
      <point x="210" y="-119" type="curve"/>
      <point x="260" y="-77" type="line"/>
      <point x="286" y="-57"/>
      <point x="304" y="-56"/>
      <point x="324" y="-56" type="curve" smooth="yes"/>
      <point x="360" y="-56"/>
      <point x="404" y="-84"/>
    </contour>
    <contour>
      <point x="404" y="-140" type="line"/>
      <point x="404" y="-206"/>
      <point x="346" y="-240"/>
      <point x="288" y="-240" type="curve" smooth="yes"/>
      <point x="244" y="-240"/>
      <point x="212" y="-230"/>
      <point x="176" y="-201" type="curve"/>
      <point x="215" y="-150" type="line"/>
      <point x="237" y="-167"/>
      <point x="256" y="-174"/>
      <point x="280" y="-174" type="curve" smooth="yes"/>
      <point x="314" y="-174"/>
      <point x="332" y="-160"/>
      <point x="332" y="-136" type="curve"/>
    </contour>
  </outline>
</glyph>
<glyph name="scedilla" format="1">
  <advance width="424"/>
  <unicode hex="015F"/>
  <outline>
    <contour>
      <point x="88" y="166" type="line"/>
      <point x="122" y="108"/>
      <point x="173" y="78"/>
      <point x="220" y="78" type="curve" smooth="yes"/>
      <point x="261" y="78"/>
      <point x="286" y="92"/>
      <point x="286" y="125" type="curve" smooth="yes"/>
      <point x="286" y="169"/>
      <point x="228" y="186"/>
      <point x="175" y="208" type="curve" smooth="yes"/>
      <point x="113" y="234"/>
      <point x="49" y="266"/>
      <point x="49" y="344" type="curve" smooth="yes"/>
      <point x="49" y="425"/>
      <point x="128" y="470"/>
      <point x="212" y="470" type="curve" smooth="yes"/>
      <point x="288" y="470"/>
      <point x="360" y="435"/>
      <point x="390" y="389" type="curve"/>
      <point x="330" y="325" type="line"/>
      <point x="302" y="358"/>
      <point x="253" y="380"/>
      <point x="216" y="380" type="curve" smooth="yes"/>
      <point x="179" y="380"/>
      <point x="155" y="369"/>
      <point x="155" y="339" type="curve" smooth="yes"/>
      <point x="155" y="307"/>
      <point x="216" y="289"/>
      <point x="270" y="267" type="curve" smooth="yes"/>
      <point x="335" y="241"/>
      <point x="397" y="202"/>
      <point x="397" y="130" type="curve" smooth="yes"/>
      <point x="397" y="28"/>
      <point x="329" y="-14"/>
      <point x="225" y="-14" type="curve" smooth="yes"/>
      <point x="135" y="-14"/>
      <point x="54" y="36"/>
      <point x="22" y="104" type="curve"/>
    </contour>
    <contour>
      <point x="214" y="64" type="line"/>
      <point x="296" y="62" type="line"/>
      <point x="214" y="-65" type="line"/>
      <point x="129" y="-115" type="line"/>
    </contour>
    <contour>
      <point x="323" y="-136" type="curve"/>
      <point x="250" y="-132" type="line"/>
      <point x="250" y="-107"/>
      <point x="228" y="-98"/>
      <point x="195" y="-98" type="curve" smooth="yes"/>
      <point x="185" y="-98"/>
      <point x="157" y="-99"/>
      <point x="129" y="-115" type="curve"/>
      <point x="179" y="-74" type="line"/>
      <point x="205" y="-54"/>
      <point x="222" y="-52"/>
      <point x="242" y="-52" type="curve" smooth="yes"/>
      <point x="278" y="-52"/>
      <point x="323" y="-80"/>
    </contour>
    <contour>
      <point x="323" y="-136" type="line"/>
      <point x="323" y="-202"/>
      <point x="264" y="-236"/>
      <point x="206" y="-236" type="curve" smooth="yes"/>
      <point x="162" y="-236"/>
      <point x="132" y="-227"/>
      <point x="96" y="-198" type="curve"/>
      <point x="133" y="-146" type="line"/>
      <point x="155" y="-163"/>
      <point x="174" y="-170"/>
      <point x="198" y="-170" type="curve" smooth="yes"/>
      <point x="232" y="-170"/>
      <point x="250" y="-156"/>
      <point x="250" y="-132" type="curve"/>
    </contour>
  </outline>
</glyph>
<glyph name="Ydieresis" format="1">
  <advance width="600"/>
  <unicode hex="0178"/>
  <outline>
    <contour>
      <point x="240" y="360" type="line"/>
      <point x="360" y="360" type="line"/>
      <point x="360" y="0" type="line"/>
      <point x="240" y="0" type="line"/>
    </contour>
    <contour>
      <point x="463" y="700" type="line"/>
      <point x="598" y="700" type="line"/>
      <point x="300" y="193" type="line"/>
      <point x="2" y="700" type="line"/>
      <point x="138" y="700" type="line"/>
      <point x="300" y="400" type="line"/>
    </contour>
    <contour>
      <point x="349" y="838" type="curve" smooth="yes"/>
      <point x="349" y="875"/>
      <point x="379" y="904"/>
      <point x="417" y="904" type="curve" smooth="yes"/>
      <point x="455" y="904"/>
      <point x="486" y="875"/>
      <point x="486" y="838" type="curve" smooth="yes"/>
      <point x="486" y="801"/>
      <point x="455" y="772"/>
      <point x="417" y="772" type="curve" smooth="yes"/>
      <point x="379" y="772"/>
      <point x="349" y="801"/>
    </contour>
    <contour>
      <point x="116" y="838" type="curve" smooth="yes"/>
      <point x="116" y="875"/>
      <point x="145" y="904"/>
      <point x="183" y="904" type="curve" smooth="yes"/>
      <point x="221" y="904"/>
      <point x="252" y="875"/>
      <point x="252" y="838" type="curve" smooth="yes"/>
      <point x="252" y="801"/>
      <point x="221" y="772"/>
      <point x="183" y="772" type="curve" smooth="yes"/>
      <point x="145" y="772"/>
      <point x="116" y="801"/>
    </contour>
  </outline>
</glyph>
<glyph name="zacute" format="1">
  <advance width="485"/>
  <unicode hex="017A"/>
  <outline>
    <contour>
      <point x="282" y="360" type="line"/>
      <point x="50" y="360" type="line"/>
      <point x="50" y="460" type="line"/>
      <point x="470" y="460" type="line"/>
      <point x="207" y="100" type="line"/>
      <point x="445" y="100" type="line"/>
      <point x="445" y="0" type="line"/>
      <point x="15" y="0" type="line"/>
    </contour>
    <contour>
      <point x="430" y="690" type="line"/>
      <point x="250" y="540" type="line"/>
      <point x="188" y="574" type="line"/>
      <point x="338" y="734" type="line"/>
    </contour>
  </outline>
</glyph>
<glyph name="Zdotaccent" format="1">
  <advance width="575"/>
  <unicode hex="017B"/>
  <outline>
    <contour>
      <point x="44" y="591" type="line"/>
      <point x="44" y="700" type="line"/>
      <point x="558" y="700" type="line"/>
      <point x="201" y="106" type="line"/>
      <point x="531" y="106" type="line"/>
      <point x="531" y="0" type="line"/>
      <point x="12" y="0" type="line"/>
      <point x="367" y="591" type="line"/>
    </contour>
    <contour>
      <point x="233" y="838" type="curve" smooth="yes"/>
      <point x="233" y="875"/>
      <point x="263" y="904"/>
      <point x="301" y="904" type="curve" smooth="yes"/>
      <point x="339" y="904"/>
      <point x="369" y="875"/>
      <point x="369" y="838" type="curve" smooth="yes"/>
      <point x="369" y="801"/>
      <point x="339" y="772"/>
      <point x="301" y="772" type="curve" smooth="yes"/>
      <point x="263" y="772"/>
      <point x="233" y="801"/>
    </contour>
  </outline>
</glyph>
<glyph name="zdotaccent" format="1">
  <advance width="485"/>
  <unicode hex="017C"/>
  <outline>
    <contour>
      <point x="282" y="360" type="line"/>
      <point x="50" y="360" type="line"/>
      <point x="50" y="460" type="line"/>
      <point x="470" y="460" type="line"/>
      <point x="207" y="100" type="line"/>
      <point x="445" y="100" type="line"/>
      <point x="445" y="0" type="line"/>
      <point x="15" y="0" type="line"/>
    </contour>
    <contour>
      <point x="192" y="616" type="curve" smooth="yes"/>
      <point x="192" y="653"/>
      <point x="222" y="682"/>
      <point x="260" y="682" type="curve" smooth="yes"/>
      <point x="298" y="682"/>
      <point x="328" y="653"/>
      <point x="328" y="616" type="curve" smooth="yes"/>
      <point x="328" y="579"/>
      <point x="298" y="550"/>
      <point x="260" y="550" type="curve" smooth="yes"/>
      <point x="222" y="550"/>
      <point x="192" y="579"/>
    </contour>
  </outline>
</glyph>
<glyph name="dotaccent" format="1">
  <advance width="300"/>
  <unicode hex="02D9"/>
  <outline>
    <contour>
      <point x="82" y="800" type="curve" smooth="yes"/>
      <point x="82" y="837"/>
      <point x="112" y="866"/>
      <point x="150" y="866" type="curve" smooth="yes"/>
      <point x="188" y="866"/>
      <point x="218" y="837"/>
      <point x="218" y="800" type="curve" smooth="yes"/>
      <point x="218" y="763"/>
      <point x="188" y="734"/>
      <point x="150" y="734" type="curve" smooth="yes"/>
      <point x="112" y="734"/>
      <point x="82" y="763"/>
    </contour>
  </outline>
</glyph>
<glyph name="uni1E9E" format="1">
  <advance width="779"/>
  <unicode hex="1E9E"/>
  <outline>
    <contour>
      <point x="80" y="377" type="line"/>
      <point x="196" y="368" type="line"/>
      <point x="196" y="0" type="line"/>
      <point x="80" y="0" type="line"/>
    </contour>
    <contour>
      <point x="455" y="345" type="curve"/>
      <point x="455" y="406" type="line"/>
      <point x="541" y="406"/>
      <point x="589" y="452"/>
      <point x="589" y="514" type="curve" smooth="yes"/>
      <point x="589" y="573"/>
      <point x="530" y="614"/>
      <point x="430" y="614" type="curve" smooth="yes"/>
      <point x="305" y="614"/>
      <point x="196" y="547"/>
      <point x="196" y="368" type="curve"/>
      <point x="80" y="377" type="line"/>
      <point x="80" y="602"/>
      <point x="229" y="710"/>
      <point x="427" y="710" type="curve" smooth="yes"/>
      <point x="592" y="710"/>
      <point x="708" y="644"/>
      <point x="708" y="530" type="curve" smooth="yes"/>
      <point x="708" y="421"/>
      <point x="606" y="345"/>
    </contour>
    <contour>
      <point x="491" y="-12" type="curve" smooth="yes"/>
      <point x="338" y="-12"/>
      <point x="256" y="90"/>
      <point x="256" y="199" type="curve"/>
      <point x="365" y="199" type="line"/>
      <point x="365" y="135"/>
      <point x="416" y="88"/>
      <point x="491" y="88" type="curve" smooth="yes"/>
      <point x="567" y="88"/>
      <point x="611" y="130"/>
      <point x="611" y="199" type="curve" smooth="yes"/>
      <point x="611" y="278"/>
      <point x="545" y="318"/>
      <point x="455" y="318" type="curve"/>
      <point x="455" y="380" type="line"/>
      <point x="606" y="380"/>
      <point x="728" y="324"/>
      <point x="728" y="185" type="curve" smooth="yes"/>
      <point x="728" y="66"/>
      <point x="627" y="-12"/>
    </contour>
  </outline>
</glyph>
<glyph name="emdash" format="1">
  <advance width="910"/>
  <unicode hex="2014"/>
  <outline>
    <contour>
      <point x="70" y="189" type="line"/>
      <point x="70" y="286" type="line"/>
      <point x="839" y="286" type="line"/>
      <point x="839" y="189" type="line"/>
    </contour>
  </outline>
</glyph>
<glyph name="quotesinglbase" format="1">
  <advance width="297"/>
  <unicode hex="201A"/>
  <outline>
    <contour>
      <point x="118" y="80" type="line"/>
      <point x="238" y="80" type="line"/>
      <point x="136" y="-160" type="line"/>
      <point x="60" y="-160" type="line"/>
    </contour>
  </outline>
</glyph>
<glyph name="quotedblleft" format="1">
  <advance width="510"/>
  <unicode hex="201C"/>
  <outline>
    <contour>
      <point x="190" y="460" type="line"/>
      <point x="70" y="460" type="line"/>
      <point x="171" y="700" type="line"/>
      <point x="248" y="700" type="line"/>
    </contour>
    <contour>
      <point x="402" y="460" type="line"/>
      <point x="282" y="460" type="line"/>
      <point x="384" y="700" type="line"/>
      <point x="460" y="700" type="line"/>
    </contour>
  </outline>
</glyph>
<glyph name="quotedblright" format="1">
  <advance width="510"/>
  <unicode hex="201D"/>
  <outline>
    <contour>
      <point x="108" y="700" type="line"/>
      <point x="228" y="700" type="line"/>
      <point x="126" y="460" type="line"/>
      <point x="50" y="460" type="line"/>
    </contour>
    <contour>
      <point x="320" y="700" type="line"/>
      <point x="440" y="700" type="line"/>
      <point x="339" y="460" type="line"/>
      <point x="262" y="460" type="line"/>
    </contour>
  </outline>
</glyph>
<glyph name="guilsinglright" format="1">
  <advance width="350"/>
  <unicode hex="203A"/>
  <outline>
    <contour>
      <point x="232" y="275" type="line"/>
      <point x="315" y="255" type="line"/>
      <point x="130" y="12" type="line"/>
      <point x="62" y="65" type="line"/>
    </contour>
    <contour>
      <point x="315" y="255" type="line"/>
      <point x="232" y="225" type="line"/>
      <point x="62" y="445" type="line"/>
      <point x="130" y="498" type="line"/>
    </contour>
  </outline>
</glyph>
<glyph name="uni2070" format="1">
  <advance width="379"/>
  <unicode hex="2070"/>
  <outline>
    <contour>
      <point x="96" y="490" type="curve" smooth="yes"/>
      <point x="96" y="400"/>
      <point x="132" y="337"/>
      <point x="190" y="337" type="curve" smooth="yes"/>
      <point x="248" y="337"/>
      <point x="284" y="400"/>
      <point x="284" y="490" type="curve" smooth="yes"/>
      <point x="284" y="580"/>
      <point x="248" y="643"/>
      <point x="190" y="643" type="curve" smooth="yes"/>
      <point x="132" y="643"/>
      <point x="96" y="580"/>
    </contour>
    <contour>
      <point x="26" y="490" type="curve" smooth="yes"/>
      <point x="26" y="620"/>
      <point x="94" y="707"/>
      <point x="190" y="707" type="curve" smooth="yes"/>
      <point x="288" y="707"/>
      <point x="353" y="620"/>
      <point x="353" y="490" type="curve" smooth="yes"/>
      <point x="353" y="360"/>
      <point x="288" y="273"/>
      <point x="190" y="273" type="curve" smooth="yes"/>
      <point x="94" y="273"/>
      <point x="26" y="360"/>
    </contour>
  </outline>
</glyph>
<glyph name="onethird" format="1">
  <advance width="802"/>
  <unicode hex="2153"/>
  <outline>
    <contour>
      <point x="580" y="700" type="line"/>
      <point x="668" y="700" type="line"/>
      <point x="148" y="0" type="line"/>
      <point x="60" y="0" type="line"/>
    </contour>
    <contour>
      <point x="28" y="596" type="line"/>
      <point x="28" y="663" type="line"/>
      <point x="195" y="701" type="line"/>
      <point x="195" y="274" type="line"/>
      <point x="125" y="274" type="line"/>
      <point x="125" y="623" type="line"/>
    </contour>
    <contour>
      <point x="611" y="206" type="curve"/>
      <point x="611" y="244" type="line"/>
      <point x="662" y="244"/>
      <point x="693" y="274"/>
      <point x="693" y="310" type="curve" smooth="yes"/>
      <point x="693" y="344"/>
      <point x="674" y="367"/>
      <point x="636" y="367" type="curve" smooth="yes"/>
      <point x="600" y="367"/>
      <point x="572" y="342"/>
      <point x="572" y="308" type="curve"/>
      <point x="505" y="308" type="line"/>
      <point x="505" y="377"/>
      <point x="559" y="427"/>
      <point x="636" y="427" type="curve" smooth="yes"/>
      <point x="717" y="427"/>
      <point x="764" y="374"/>
      <point x="764" y="313" type="curve" smooth="yes"/>
      <point x="764" y="249"/>
      <point x="699" y="206"/>
    </contour>
    <contour>
      <point x="632" y="-8" type="curve" smooth="yes"/>
      <point x="543" y="-8"/>
      <point x="487" y="51"/>
      <point x="487" y="120" type="curve"/>
      <point x="558" y="120" type="line"/>
      <point x="558" y="79"/>
      <point x="591" y="54"/>
      <point x="634" y="54" type="curve" smooth="yes"/>
      <point x="677" y="54"/>
      <point x="705" y="78"/>
      <point x="705" y="120" type="curve" smooth="yes"/>
      <point x="705" y="165"/>
      <point x="668" y="190"/>
      <point x="611" y="190" type="curve"/>
      <point x="611" y="231" type="line"/>
      <point x="704" y="231"/>
      <point x="776" y="196"/>
      <point x="776" y="112" type="curve" smooth="yes"/>
      <point x="776" y="40"/>
      <point x="718" y="-8"/>
    </contour>
  </outline>
</glyph>
<glyph name="uni2158" format="1">
  <advance width="926"/>
  <unicode hex="2158"/>
  <outline>
    <contour>
      <point x="708" y="700" type="line"/>
      <point x="795" y="700" type="line"/>
      <point x="275" y="-0" type="line"/>
      <point x="188" y="-0" type="line"/>
    </contour>
    <contour>
      <point x="27" y="360" type="line"/>
      <point x="85" y="416" type="line"/>
      <point x="269" y="416" type="line" smooth="yes"/>
      <point x="279" y="422" type="line" smooth="yes"/>
      <point x="373" y="422" type="line"/>
      <point x="373" y="360" type="line"/>
    </contour>
    <contour>
      <point x="100" y="372" type="line"/>
      <point x="27" y="360" type="line"/>
      <point x="264" y="700" type="line"/>
      <point x="307" y="700" type="line"/>
      <point x="307" y="280" type="line"/>
      <point x="234" y="280" type="line"/>
      <point x="234" y="382" type="line" smooth="yes"/>
      <point x="239" y="388" type="line" smooth="yes"/>
      <point x="239" y="574" type="line"/>
    </contour>
    <contour>
      <point x="896" y="134" type="curve" smooth="yes"/>
      <point x="896" y="38"/>
      <point x="821" y="-9"/>
      <point x="740" y="-9" type="curve" smooth="yes"/>
      <point x="663" y="-9"/>
      <point x="616" y="26"/>
      <point x="584" y="66" type="curve"/>
      <point x="625" y="117" type="line"/>
      <point x="650" y="84"/>
      <point x="691" y="57"/>
      <point x="731" y="57" type="curve" smooth="yes"/>
      <point x="787" y="57"/>
      <point x="820" y="88"/>
      <point x="820" y="139" type="curve" smooth="yes"/>
      <point x="820" y="190"/>
      <point x="780" y="220"/>
      <point x="731" y="220" type="curve" smooth="yes"/>
      <point x="694" y="220"/>
      <point x="663" y="212"/>
      <point x="620" y="186" type="curve"/>
      <point x="666" y="231" type="line"/>
      <point x="696" y="263"/>
      <point x="732" y="274"/>
      <point x="770" y="274" type="curve" smooth="yes"/>
      <point x="840" y="274"/>
      <point x="896" y="218"/>
    </contour>
    <contour>
      <point x="730" y="356" type="line"/>
      <point x="697" y="239" type="line"/>
      <point x="620" y="186" type="line"/>
      <point x="676" y="418" type="line"/>
      <point x="892" y="418" type="line"/>
      <point x="892" y="356" type="line"/>
    </contour>
  </outline>
</glyph>
<glyph name="uni2219" format="1">
  <advance width="309"/>
  <unicode hex="2219"/>
  <outline>
    <contour>
      <point x="84" y="426" type="curve" smooth="yes"/>
      <point x="84" y="464"/>
      <point x="114" y="496"/>
      <point x="154" y="496" type="curve" smooth="yes"/>
      <point x="194" y="496"/>
      <point x="225" y="464"/>
      <point x="225" y="426" type="curve" smooth="yes"/>
      <point x="225" y="388"/>
      <point x="194" y="356"/>
      <point x="154" y="356" type="curve" smooth="yes"/>
      <point x="114" y="356"/>
      <point x="84" y="388"/>
    </contour>
  </outline>
</glyph>
<glyph name="abreve.alt" format="1">
  <advance width="588"/>
  <outline>
    <contour>
      <point x="418" y="460" type="line"/>
      <point x="524" y="460" type="line"/>
      <point x="524" y="0" type="line"/>
      <point x="418" y="0" type="line"/>
    </contour>
    <contour>
      <point x="34" y="230" type="curve" smooth="yes"/>
      <point x="34" y="382"/>
      <point x="138" y="470"/>
      <point x="258" y="470" type="curve" smooth="yes"/>
      <point x="373" y="470"/>
      <point x="454" y="379"/>
      <point x="454" y="230" type="curve" smooth="yes"/>
      <point x="454" y="81"/>
      <point x="373" y="-10"/>
      <point x="258" y="-10" type="curve" smooth="yes"/>
      <point x="138" y="-10"/>
      <point x="34" y="78"/>
    </contour>
    <contour>
      <point x="146" y="230" type="curve" smooth="yes"/>
      <point x="146" y="138"/>
      <point x="209" y="84"/>
      <point x="284" y="84" type="curve" smooth="yes"/>
      <point x="346" y="84"/>
      <point x="415" y="136"/>
      <point x="415" y="230" type="curve" smooth="yes"/>
      <point x="415" y="324"/>
      <point x="346" y="376"/>
      <point x="284" y="376" type="curve" smooth="yes"/>
      <point x="209" y="376"/>
      <point x="146" y="322"/>
    </contour>
    <contour>
      <point x="121" y="672" type="curve"/>
      <point x="204" y="672" type="line"/>
      <point x="204" y="642"/>
      <point x="224" y="603"/>
      <point x="282" y="603" type="curve" smooth="yes"/>
      <point x="340" y="603"/>
      <point x="360" y="642"/>
      <point x="360" y="672" type="curve"/>
      <point x="443" y="672" type="line"/>
      <point x="443" y="598"/>
      <point x="387" y="530"/>
      <point x="282" y="530" type="curve" smooth="yes"/>
      <point x="177" y="530"/>
      <point x="121" y="598"/>
    </contour>
  </outline>
</glyph>
<glyph name="adieresis.alt" format="1">
  <advance width="588"/>
  <outline>
    <contour>
      <point x="418" y="460" type="line"/>
      <point x="524" y="460" type="line"/>
      <point x="524" y="0" type="line"/>
      <point x="418" y="0" type="line"/>
    </contour>
    <contour>
      <point x="34" y="230" type="curve" smooth="yes"/>
      <point x="34" y="382"/>
      <point x="138" y="470"/>
      <point x="258" y="470" type="curve" smooth="yes"/>
      <point x="373" y="470"/>
      <point x="454" y="379"/>
      <point x="454" y="230" type="curve" smooth="yes"/>
      <point x="454" y="81"/>
      <point x="373" y="-10"/>
      <point x="258" y="-10" type="curve" smooth="yes"/>
      <point x="138" y="-10"/>
      <point x="34" y="78"/>
    </contour>
    <contour>
      <point x="146" y="230" type="curve" smooth="yes"/>
      <point x="146" y="138"/>
      <point x="209" y="84"/>
      <point x="284" y="84" type="curve" smooth="yes"/>
      <point x="346" y="84"/>
      <point x="415" y="136"/>
      <point x="415" y="230" type="curve" smooth="yes"/>
      <point x="415" y="324"/>
      <point x="346" y="376"/>
      <point x="284" y="376" type="curve" smooth="yes"/>
      <point x="209" y="376"/>
      <point x="146" y="322"/>
    </contour>
    <contour>
      <point x="334" y="596" type="curve" smooth="yes"/>
      <point x="334" y="633"/>
      <point x="365" y="662"/>
      <point x="403" y="662" type="curve" smooth="yes"/>
      <point x="441" y="662"/>
      <point x="471" y="633"/>
      <point x="471" y="596" type="curve" smooth="yes"/>
      <point x="471" y="559"/>
      <point x="441" y="530"/>
      <point x="403" y="530" type="curve" smooth="yes"/>
      <point x="365" y="530"/>
      <point x="334" y="559"/>
    </contour>
    <contour>
      <point x="117" y="596" type="curve" smooth="yes"/>
      <point x="117" y="633"/>
      <point x="147" y="662"/>
      <point x="185" y="662" type="curve" smooth="yes"/>
      <point x="223" y="662"/>
      <point x="253" y="633"/>
      <point x="253" y="596" type="curve" smooth="yes"/>
      <point x="253" y="559"/>
      <point x="223" y="530"/>
      <point x="185" y="530" type="curve" smooth="yes"/>
      <point x="147" y="530"/>
      <point x="117" y="559"/>
    </contour>
  </outline>
</glyph>
<glyph name="aogonek.alt" format="1">
  <advance width="587"/>
  <outline>
    <contour>
      <point x="418" y="460" type="line"/>
      <point x="524" y="460" type="line"/>
      <point x="524" y="0" type="line"/>
      <point x="418" y="0" type="line"/>
    </contour>
    <contour>
      <point x="34" y="230" type="curve" smooth="yes"/>
      <point x="34" y="382"/>
      <point x="138" y="470"/>
      <point x="258" y="470" type="curve" smooth="yes"/>
      <point x="373" y="470"/>
      <point x="454" y="379"/>
      <point x="454" y="230" type="curve" smooth="yes"/>
      <point x="454" y="81"/>
      <point x="373" y="-10"/>
      <point x="258" y="-10" type="curve" smooth="yes"/>
      <point x="138" y="-10"/>
      <point x="34" y="78"/>
    </contour>
    <contour>
      <point x="146" y="230" type="curve" smooth="yes"/>
      <point x="146" y="138"/>
      <point x="209" y="84"/>
      <point x="284" y="84" type="curve" smooth="yes"/>
      <point x="346" y="84"/>
      <point x="415" y="136"/>
      <point x="415" y="230" type="curve" smooth="yes"/>
      <point x="415" y="324"/>
      <point x="346" y="376"/>
      <point x="284" y="376" type="curve" smooth="yes"/>
      <point x="209" y="376"/>
      <point x="146" y="322"/>
    </contour>
    <contour>
      <point x="517" y="-122" type="curve"/>
      <point x="550" y="-180" type="line"/>
      <point x="535" y="-200"/>
      <point x="505" y="-220"/>
      <point x="457" y="-220" type="curve" smooth="yes"/>
      <point x="381" y="-220"/>
      <point x="337" y="-182"/>
      <point x="337" y="-120" type="curve"/>
      <point x="424" y="-98" type="line"/>
      <point x="424" y="-130"/>
      <point x="439" y="-142"/>
      <point x="467" y="-142" type="curve" smooth="yes"/>
      <point x="491" y="-142"/>
      <point x="503" y="-135"/>
    </contour>
    <contour>
      <point x="424" y="-98" type="curve"/>
      <point x="337" y="-120" type="line"/>
      <point x="337" y="-58"/>
      <point x="401" y="-11"/>
      <point x="471" y="25" type="curve"/>
      <point x="512" y="0" type="line"/>
      <point x="460" y="-24"/>
      <point x="424" y="-64"/>
    </contour>
  </outline>
</glyph>
<glyph name="aring.alt" format="1">
  <advance width="588"/>
  <outline>
    <contour>
      <point x="418" y="460" type="line"/>
      <point x="524" y="460" type="line"/>
      <point x="524" y="0" type="line"/>
      <point x="418" y="0" type="line"/>
    </contour>
    <contour>
      <point x="34" y="230" type="curve" smooth="yes"/>
      <point x="34" y="382"/>
      <point x="138" y="470"/>
      <point x="258" y="470" type="curve" smooth="yes"/>
      <point x="373" y="470"/>
      <point x="454" y="379"/>
      <point x="454" y="230" type="curve" smooth="yes"/>
      <point x="454" y="81"/>
      <point x="373" y="-10"/>
      <point x="258" y="-10" type="curve" smooth="yes"/>
      <point x="138" y="-10"/>
      <point x="34" y="78"/>
    </contour>
    <contour>
      <point x="146" y="230" type="curve" smooth="yes"/>
      <point x="146" y="138"/>
      <point x="209" y="84"/>
      <point x="284" y="84" type="curve" smooth="yes"/>
      <point x="346" y="84"/>
      <point x="415" y="136"/>
      <point x="415" y="230" type="curve" smooth="yes"/>
      <point x="415" y="324"/>
      <point x="346" y="376"/>
      <point x="284" y="376" type="curve" smooth="yes"/>
      <point x="209" y="376"/>
      <point x="146" y="322"/>
    </contour>
    <contour>
      <point x="187" y="636" type="curve" smooth="yes"/>
      <point x="187" y="700"/>
      <point x="239" y="742"/>
      <point x="298" y="742" type="curve" smooth="yes"/>
      <point x="357" y="742"/>
      <point x="409" y="700"/>
      <point x="409" y="636" type="curve" smooth="yes"/>
      <point x="409" y="572"/>
      <point x="357" y="530"/>
      <point x="298" y="530" type="curve" smooth="yes"/>
      <point x="239" y="530"/>
      <point x="187" y="572"/>
    </contour>
    <contour>
      <point x="249" y="636" type="curve" smooth="yes"/>
      <point x="249" y="604"/>
      <point x="273" y="585"/>
      <point x="298" y="585" type="curve" smooth="yes"/>
      <point x="323" y="585"/>
      <point x="347" y="604"/>
      <point x="347" y="636" type="curve" smooth="yes"/>
      <point x="347" y="668"/>
      <point x="323" y="687"/>
      <point x="298" y="687" type="curve" smooth="yes"/>
      <point x="273" y="687"/>
      <point x="249" y="668"/>
    </contour>
  </outline>
</glyph>
<glyph name="atilde.alt" format="1">
  <advance width="588"/>
  <outline>
    <contour>
      <point x="418" y="460" type="line"/>
      <point x="524" y="460" type="line"/>
      <point x="524" y="0" type="line"/>
      <point x="418" y="0" type="line"/>
    </contour>
    <contour>
      <point x="34" y="230" type="curve" smooth="yes"/>
      <point x="34" y="382"/>
      <point x="138" y="470"/>
      <point x="258" y="470" type="curve" smooth="yes"/>
      <point x="373" y="470"/>
      <point x="454" y="379"/>
      <point x="454" y="230" type="curve" smooth="yes"/>
      <point x="454" y="81"/>
      <point x="373" y="-10"/>
      <point x="258" y="-10" type="curve" smooth="yes"/>
      <point x="138" y="-10"/>
      <point x="34" y="78"/>
    </contour>
    <contour>
      <point x="146" y="230" type="curve" smooth="yes"/>
      <point x="146" y="138"/>
      <point x="209" y="84"/>
      <point x="284" y="84" type="curve" smooth="yes"/>
      <point x="346" y="84"/>
      <point x="415" y="136"/>
      <point x="415" y="230" type="curve" smooth="yes"/>
      <point x="415" y="324"/>
      <point x="346" y="376"/>
      <point x="284" y="376" type="curve" smooth="yes"/>
      <point x="209" y="376"/>
      <point x="146" y="322"/>
    </contour>
    <contour>
      <point x="120" y="578" type="line"/>
      <point x="130" y="627"/>
      <point x="177" y="665"/>
      <point x="230" y="665" type="curve" smooth="yes"/>
      <point x="295" y="665"/>
      <point x="304" y="616"/>
      <point x="359" y="616" type="curve" smooth="yes"/>
      <point x="381" y="616"/>
      <point x="399" y="634"/>
      <point x="419" y="666" type="curve"/>
      <point x="475" y="610" type="line"/>
      <point x="459" y="573"/>
      <point x="413" y="532"/>
      <point x="358" y="532" type="curve" smooth="yes"/>
      <point x="303" y="532"/>
      <point x="277" y="582"/>
      <point x="230" y="582" type="curve" smooth="yes"/>
      <point x="190" y="582"/>
      <point x="180" y="546"/>
      <point x="180" y="531" type="curve"/>
    </contour>
  </outline>
</glyph>
